<svg width="218" height="2217" viewBox="0 0 218 2217" fill="none" xmlns="http://www.w3.org/2000/svg">
<g clip-path="url(#clip0_32_619)">
<rect width="218.018" height="2226" fill="#0F1722"/>
<g style="mix-blend-mode:overlay">
<path d="M192.35 1914.13C194.974 1915.18 196.719 1916.97 197.342 1919.43C198.477 1923.92 195.603 1929.98 189.454 1936.05L122.822 2001.82C113.696 2010.83 99.1624 2017.98 87.4769 2019.21C80.8425 2019.91 75.9347 2018.56 73.6523 2015.41L45.3265 1976.31C43.3891 1973.63 43.4721 1970.01 45.57 1965.81C50.481 1955.99 65.1984 1945.49 79.806 1941.38L174.76 1914.71C182.126 1912.64 188.288 1912.51 192.347 1914.14L192.35 1914.13ZM78.6542 2016.35C80.9977 2017.29 84.1531 2017.58 87.9318 2017.18C99.1704 2016 113.118 2009.16 121.85 2000.54L188.483 1934.77C193.975 1929.34 196.475 1924.29 195.523 1920.53C194.128 1915.01 185.917 1913.5 174.611 1916.67L79.6576 1943.35C63.7516 1947.81 51.0406 1958.48 47.1539 1966.25C45.43 1969.7 45.3549 1972.56 46.937 1974.75L75.2602 2013.85C76.0416 2014.93 77.1878 2015.76 78.6534 2016.35L78.6542 2016.35Z" fill="#20ACF5"/>
<path d="M199.075 1905.53C201.544 1906.52 203.262 1908.16 204.033 1910.44C205.57 1914.98 203.067 1921.14 196.984 1927.78L129.761 2001.24C114.219 2018.23 84.6327 2028.3 76.1092 2019.51L39.4971 1981.78C36.9764 1979.18 36.6703 1975.4 38.616 1970.83C43.0772 1960.37 58.3596 1948.38 74.1631 1942.94L177.998 1907.21C186.902 1904.15 194.364 1903.64 199.076 1905.52L199.075 1905.53ZM80.5235 2019.72C91.0084 2023.92 115.555 2014.42 128.676 2000.08L195.899 1926.62C201.273 1920.75 203.524 1915.44 202.247 1911.66C200.277 1905.83 190.517 1904.83 177.964 1909.15L74.1289 1944.87C56.8784 1950.81 43.8148 1962.83 40.2755 1971.12C38.6539 1974.92 38.9006 1977.94 41.0009 1980.11L77.613 2017.84C78.3914 2018.64 79.3732 2019.26 80.5235 2019.72Z" fill="#20ACF5"/>
<path d="M205.689 1896.19C207.982 1897.1 209.649 1898.58 210.53 1900.6C212.489 1905.11 210.341 1911.51 204.48 1918.63L137.509 2000.05C122.051 2018.84 89.9902 2031.79 79.3583 2023.53L33.5676 1987.93C30.372 1985.45 29.6219 1981.5 31.4011 1976.51C35.4164 1965.26 50.8061 1952.02 67.9922 1945.04L180.754 1899.22C191.197 1894.98 200.222 1894 205.689 1896.19ZM83.0029 2023.01C94.7154 2027.7 122.759 2015.5 136.316 1999.01L203.285 1917.6C208.48 1911.28 210.434 1905.71 208.786 1901.93C206.542 1896.78 197.031 1894.53 180.831 1901.11L68.0692 1946.93C49.5751 1954.45 36.2592 1967.84 33.1241 1976.63C31.6448 1980.78 32.2789 1984.06 34.9597 1986.15L80.7504 2021.74C81.4102 2022.26 82.1636 2022.68 83.0021 2023.02L83.0029 2023.01Z" fill="#20ACF5"/>
<path d="M211.985 1885.91C214.109 1886.76 215.723 1888.09 216.715 1889.9C219.141 1894.34 217.41 1900.97 211.837 1908.57L146.108 1998.15C130.957 2018.8 96.4351 2034.91 83.5009 2027.36L27.6178 1994.76C23.6412 1992.44 22.3772 1988.33 23.9635 1982.87C27.4009 1971.04 43.1029 1956.26 61.2984 1947.74L182.91 1890.77C195.086 1885.06 205.742 1883.42 211.986 1885.92L211.985 1885.91ZM86.1501 2026.16C99.2492 2031.4 131.037 2016.01 144.803 1997.24L210.532 1907.67C215.492 1900.91 217.087 1895.1 215.022 1891.33C212.059 1885.9 201.036 1884.19 183.103 1892.59L61.4915 1949.57C41.872 1958.76 28.4273 1973.56 25.7396 1982.82C24.4043 1987.42 25.4921 1990.9 28.889 1992.88L84.7721 2025.48C85.207 2025.74 85.6672 2025.96 86.1551 2026.16L86.1501 2026.16Z" fill="#20ACF5"/>
<path d="M217.876 1874.81C219.816 1875.58 221.357 1876.76 222.426 1878.33C225.378 1882.68 224.134 1889.51 218.919 1897.57L155.565 1995.43C140.976 2017.97 104.058 2037.63 88.6098 2030.93L21.71 2002.29C16.838 2000.2 14.9764 1995.94 16.328 1989.95C19.1213 1977.57 34.9977 1961.23 54.0725 1951.09L184.324 1881.87C198.31 1874.44 210.757 1871.97 217.869 1874.81L217.876 1874.81ZM90.0167 2029.11C104.696 2034.98 140.459 2015.84 154.154 1994.69L217.506 1896.83C222.168 1889.63 223.334 1883.6 220.794 1879.86C216.263 1873.18 201.391 1874.74 184.63 1883.65L54.3761 1952.87C33.5563 1963.94 20.3888 1979.8 18.1397 1989.76C16.9826 1994.88 18.6112 1998.55 22.8515 2000.36L89.7512 2029C89.838 2029.04 89.9248 2029.07 90.0141 2029.11L90.0167 2029.11Z" fill="#20ACF5"/>
<path d="M223.231 1862.89C224.959 1863.58 226.397 1864.58 227.498 1865.89C231.048 1870.12 230.369 1877.13 225.586 1885.64L165.905 1991.81C152.172 2016.24 112.96 2039.59 94.7929 2034.15L15.9519 2010.55C10.1383 2008.81 7.50662 2004.28 8.559 1997.78C10.6844 1984.69 26.2212 1967.16 46.3446 1955.17L184.866 1872.6C200.718 1863.15 215.14 1859.66 223.229 1862.9L223.231 1862.89ZM15.8228 2008.18C16.187 2008.32 16.5656 2008.45 16.9653 2008.57L95.8063 2032.17C112.943 2037.3 151.401 2014.35 164.392 1991.24L224.072 1885.07C228.432 1877.31 229.075 1871.25 225.939 1867.51C220.187 1860.67 203.473 1863.47 185.281 1874.32L46.7591 1956.89C25.1152 1969.79 12.0862 1987.06 10.4003 1997.45C9.54346 2002.73 11.4149 2006.41 15.8228 2008.18Z" fill="#20ACF5"/>
<path d="M228.046 1850.29C229.467 1850.86 230.703 1851.63 231.727 1852.61C235.964 1856.66 235.943 1863.83 231.67 1872.79L177.125 1987.19C164.583 2013.49 123.232 2040.91 102.134 2036.92L10.4352 2019.54C3.4589 2018.22 0.0011218 2013.56 0.706904 2006.42C2.04641 1992.83 17.4341 1973.76 38.1216 1960.03L184.366 1863.01C201.899 1851.38 218.855 1846.61 228.048 1850.29L228.046 1850.29ZM10.8781 2018.54L11.321 2017.54L103.02 2034.91C122.984 2038.69 163.636 2011.71 175.516 1986.8L230.061 1872.4C233.974 1864.2 234.041 1857.94 230.252 1854.32C223.073 1847.45 204.418 1851.71 184.891 1864.66L38.6464 1961.68C18.6672 1974.94 3.82839 1993.14 2.56758 2005.94C1.93732 2012.32 4.96992 2016.33 11.3252 2017.54L10.8824 2018.54L10.8781 2018.54Z" fill="#20ACF5"/>
<path d="M231.895 1836.86C232.993 1837.3 233.991 1837.85 234.88 1838.52C239.914 1842.34 240.664 1849.63 236.986 1859.05L189.213 1981.45C178.233 2009.58 134.956 2041.38 110.727 2039.12L5.28161 2029.27C-3.01187 2028.5 -7.43119 2023.74 -7.16354 2015.88C-6.68207 2001.84 8.36625 1981.23 29.4306 1965.76L182.649 1853.2C202.02 1838.97 221.447 1832.68 231.891 1836.85L231.895 1836.86ZM5.66374 2028.26L6.04413 2027.25L111.489 2037.1C134.476 2039.24 177.109 2007.93 187.523 1981.26L235.296 1858.86C238.682 1850.18 238.062 1843.77 233.503 1840.32C224.652 1833.61 204.005 1839.56 183.291 1854.77L30.0721 1967.33C9.70441 1982.29 -4.83632 2002 -5.29024 2015.27C-5.53333 2022.39 -1.61386 2026.54 6.04665 2027.25L5.66627 2028.26L5.66374 2028.26Z" fill="#20ACF5"/>
<path d="M234.745 1822.75C235.429 1823.02 236.078 1823.34 236.691 1823.69C242.665 1827.19 244.315 1834.56 241.334 1844.46L202.157 1974.5C198.158 1987.77 186.801 2003.1 170.989 2016.58C153.455 2031.52 134.176 2040.74 120.673 2040.64L0.636341 2039.73C-9.14048 2039.66 -14.6744 2034.85 -14.9517 2026.2C-15.4231 2011.52 -1.24156 1989.9 20.3358 1972.4L179.552 1843.26C200.693 1826.12 222.856 1817.99 234.749 1822.75L234.745 1822.75ZM-5.87111 2036.46C-3.87462 2037.26 -1.4871 2037.68 1.26806 2037.7L121.305 2038.61C134.353 2038.7 153.081 2029.71 170.182 2015.14C185.318 2002.24 196.611 1987.05 200.389 1974.51L239.569 1844.47C242.329 1835.3 240.895 1828.76 235.424 1825.56C224.655 1819.26 201.995 1827.15 180.3 1844.74L21.0836 1973.88C0.527353 1990.56 -13.5242 2011.76 -13.0846 2025.45C-12.909 2030.89 -10.4002 2034.64 -5.87032 2036.46L-5.87111 2036.46Z" fill="#20ACF5"/>
<path d="M236.42 1808.04C236.565 1808.1 236.706 1808.16 236.849 1808.22C243.935 1811.29 246.647 1818.69 244.484 1829.07L215.911 1966.22C213.11 1979.66 202.721 1995.87 187.408 2010.7C169.04 2028.48 147.829 2040.21 132.053 2041.33L-3.3621 2050.89C-14.7871 2051.7 -21.6124 2046.91 -22.5783 2037.4C-24.1091 2022.35 -10.6645 1999.3 10.8735 1980.03L174.862 1833.31C197.645 1812.93 222.842 1802.61 236.42 1808.04ZM-2.84905 2048.87L132.566 2039.3C147.867 2038.22 168.516 2026.76 186.458 2009.39C201.334 1994.99 211.404 1979.34 214.091 1966.45L242.664 1829.3C244.681 1819.62 242.274 1813 235.705 1810.15C222.753 1804.59 198.125 1814.66 175.722 1834.7L11.7337 1981.42C-9.13115 2000.09 -22.1725 2022.24 -20.7197 2036.54C-19.8343 2045.24 -13.4873 2049.62 -2.84905 2048.87Z" fill="#20ACF5"/>
<path d="M236.63 1792.8C243.922 1795.72 247.307 1802.81 246.189 1812.97L230.419 1956.5C228.923 1970.12 219.62 1987.19 204.894 2003.35C186.073 2024 163.107 2038.45 144.956 2041.04L-6.5368 2062.72C-19.7865 2064.62 -28.0924 2059.92 -29.9202 2049.51C-32.6633 2033.9 -20.4765 2010.03 1.12632 1988.69L168.39 1823.49C191.746 1800.42 219.141 1787.56 235.005 1792.24C235.569 1792.4 236.11 1792.59 236.635 1792.8L236.63 1792.8ZM-19.4268 2059.71C-15.9235 2061.11 -11.4586 2061.46 -6.14751 2060.7L145.345 2039.02C162.998 2036.5 185.398 2022.38 203.805 2002.19C218.105 1986.49 227.129 1970.01 228.563 1956.95L244.334 1813.42C245.46 1803.18 241.882 1796.56 233.994 1794.22C218.709 1789.71 192.13 1802.27 169.36 1824.76L2.0968 1989.97C-18.5296 2010.34 -30.6538 2033.87 -28.0788 2048.52C-27.1084 2054.04 -24.1337 2057.82 -19.4235 2059.7L-19.4268 2059.71Z" fill="#20ACF5"/>
<path d="M235.185 1777.16C242.357 1780.03 246.222 1786.67 246.185 1796.27L245.613 1945.25C245.559 1959.04 237.452 1977 223.363 1994.53C204.789 2017.64 179.706 2035.34 159.459 2039.62L-8.70818 2075.16C-23.7287 2078.33 -33.9878 2073.73 -36.855 2062.54C-40.9215 2046.68 -29.917 2021.52 -8.82375 1998.46L159.913 1813.95C183.208 1788.47 212.339 1772.85 230.753 1775.94C232.346 1776.21 233.824 1776.62 235.181 1777.16L235.185 1777.16ZM-8.57016 2074.16L-8.43216 2073.16L159.735 2037.62C179.472 2033.45 203.97 2016.14 222.147 1993.52C235.822 1976.5 243.695 1959.15 243.746 1945.92L244.318 1796.95C244.359 1786.12 239.371 1779.55 229.898 1777.96C212.075 1774.96 183.745 1790.24 160.997 1815.11L-7.73953 1999.62C-28.2086 2022.01 -38.9249 2046.27 -35.0374 2061.43C-32.3168 2072.04 -22.8693 2076.21 -8.4339 2073.16L-8.5719 2074.16L-8.57016 2074.16Z" fill="#20ACF5"/>
<path d="M231.894 1761.28C238.899 1764.08 243.177 1770.2 244.177 1779.11L261.39 1932.35C262.957 1946.32 256.164 1965.22 242.749 1984.21C224.556 2009.97 198.207 2030.65 175.629 2036.89L-9.66807 2088.14C-26.8029 2092.88 -39.0337 2088.64 -43.2236 2076.51C-48.7671 2060.46 -39.2035 2034.11 -18.8659 2009.36L149.218 1804.87C172.012 1777.14 202.63 1758.52 223.677 1759.58C226.727 1759.73 229.474 1760.3 231.895 1761.27L231.894 1761.28ZM-9.51295 2086.17L175.784 2034.93C197.83 2028.83 223.59 2008.59 241.408 1983.36C254.429 1964.92 261.035 1946.66 259.532 1933.24L242.319 1780C241.049 1768.71 234.182 1762.18 222.977 1761.61C202.538 1760.58 172.699 1778.8 150.411 1805.91L-17.6733 2010.4C-37.4272 2034.44 -46.7598 2059.91 -41.4452 2075.29C-37.4957 2086.72 -25.8556 2090.69 -9.51468 2086.17L-9.51295 2086.17Z" fill="#20ACF5"/>
<path d="M226.532 1745.31C233.306 1748.02 237.897 1753.57 239.854 1761.65L277.625 1917.73C281.047 1931.86 275.714 1951.79 262.997 1972.38C245.583 2000.58 218.311 2024.25 193.518 2032.68L-9.20669 2101.58C-28.5853 2108.16 -43.0397 2104.46 -48.8603 2091.42C-56.1716 2075.05 -48.5184 2048.24 -28.8852 2021.46L136.069 1796.49C158.246 1766.24 189.28 1744.94 213.295 1743.48C218.327 1743.17 222.766 1743.8 226.53 1745.31L226.532 1745.31ZM-36.0216 2100.92C-29.131 2103.68 -19.9498 2103.31 -9.16552 2099.65L193.559 2030.75C217.798 2022.51 244.486 1999.33 261.551 1971.7C273.901 1951.7 279.098 1932.42 275.804 1918.82L238.035 1762.74C235.15 1750.82 226.174 1744.7 212.77 1745.52C189.382 1746.94 159.087 1767.78 137.38 1797.39L-27.574 2022.36C-46.6566 2048.39 -54.1459 2074.34 -47.1176 2090.09C-44.796 2095.3 -41.0067 2098.93 -36.0181 2100.93L-36.0216 2100.92Z" fill="#20ACF5"/>
<path d="M218.873 1729.45C225.33 1732.03 230.121 1736.97 232.895 1744.08L294.178 1901.27C299.749 1915.56 296.072 1936.6 284.09 1958.99C267.827 1989.39 239.988 2016 213.171 2026.78L-7.08051 2115.36C-28.7959 2124.09 -45.7289 2121.14 -53.5439 2107.28C-62.7562 2090.93 -57.0764 2063.15 -38.7239 2034.78L120.244 1789.01C140.97 1756.97 172.683 1732.46 199.155 1728.04C206.774 1726.76 213.415 1727.27 218.866 1729.45L218.873 1729.45ZM-7.11262 2114.41L-7.14899 2113.46L213.104 2024.89C239.349 2014.34 266.607 1988.27 282.549 1958.47C294.192 1936.71 297.788 1916.33 292.415 1902.55L231.136 1745.35C226.245 1732.81 214.766 1727.38 198.813 1730.04C172.973 1734.37 141.968 1758.36 121.665 1789.75L-37.3048 2035.52C-55.1615 2063.13 -60.737 2090.07 -51.8523 2105.84C-44.3746 2119.1 -28.0795 2121.89 -7.14552 2113.47L-7.10914 2114.41L-7.11262 2114.41Z" fill="#20ACF5"/>
<path d="M208.681 1713.91C214.718 1716.32 219.554 1720.59 222.955 1726.63L310.874 1882.91C318.969 1897.3 317.196 1919.56 306.018 1943.98C291.231 1976.28 263.205 2005.73 234.625 2019L-3.02614 2129.34C-27.1151 2140.52 -46.7919 2138.6 -57.0159 2124.07C-68.3896 2107.89 -65.0128 2079.25 -48.2087 2049.33L101.523 1782.71C120.645 1748.66 151.773 1721.57 180.83 1713.71C191.675 1710.77 201.12 1710.88 208.683 1713.91L208.681 1713.91ZM-3.21264 2127.5L234.434 2017.16C262.43 2004.16 289.888 1975.3 304.386 1943.63C315.261 1919.87 317.012 1898.27 309.186 1884.35L221.268 1728.07C213.903 1714.98 199.481 1710.58 180.661 1715.67C152.248 1723.36 121.776 1749.9 103.035 1783.27L-46.6964 2049.9C-63.0672 2079.05 -66.4016 2106.88 -55.3975 2122.52C-45.5553 2136.51 -26.5361 2138.33 -3.21264 2127.5Z" fill="#20ACF5"/>
<path d="M195.863 1699.13C201.316 1701.31 205.982 1704.8 209.655 1709.57L327.488 1862.59C338.56 1876.97 339.02 1900.53 328.751 1927.25C315.522 1961.67 288.355 1993.04 257.852 2009.12L3.20084 2143.37C-22.8434 2157.1 -46.0963 2156.5 -58.9968 2141.76C-73.0589 2125.7 -72.3723 2097.05 -57.1672 2065.12L79.6501 1777.86C96.4225 1742.64 127.144 1712.47 157.912 1700.99C172.474 1695.56 185.573 1695.01 195.863 1699.13ZM3.05165 2142.48L2.90499 2141.59L257.558 2007.34C287.451 1991.58 314.082 1960.82 327.053 1927.07C337.058 1901.04 336.638 1878.12 325.898 1864.17L208.065 1711.15C197.817 1697.84 179.542 1694.83 157.932 1702.9C127.802 1714.14 97.7062 1743.72 81.259 1778.25L-55.5583 2065.51C-70.3876 2096.65 -71.0943 2124.54 -57.4515 2140.12C-44.9678 2154.38 -22.4051 2154.93 2.90749 2141.58L3.05418 2142.48L3.05165 2142.48Z" fill="#20ACF5"/>
<path d="M180.132 1685.08C184.79 1686.94 188.988 1689.65 192.633 1693.19L343.796 1840.24C358.392 1854.44 361.49 1879.4 352.295 1908.7C341.088 1944.42 314.479 1978.23 282.856 1996.94L11.904 2157.25C-16.3406 2173.96 -42.8851 2175.1 -59.1025 2160.3C-76.0694 2144.82 -78.4113 2115.61 -65.3687 2082.14L54.4203 1774.78C68.6923 1738.16 97.7036 1705.83 130.134 1690.4C149.081 1681.38 166.553 1679.64 180.133 1685.07L180.132 1685.08ZM11.7023 2156.39L11.4988 2155.53L282.451 1995.22C313.458 1976.87 339.549 1943.71 350.542 1908.69C359.516 1880.09 356.519 1855.76 342.318 1841.95L191.155 1694.9C177.29 1681.41 155.124 1680.44 130.34 1692.23C98.5554 1707.36 70.1153 1739.06 56.1179 1774.98L-63.6711 2082.34C-76.4063 2115.01 -74.1513 2143.51 -57.6439 2158.58C-41.8808 2172.96 -16.0342 2171.82 11.5005 2155.53L11.704 2156.39L11.7023 2156.39Z" fill="#20ACF5"/>
<path d="M161.385 1672.25C164.972 1673.68 168.351 1675.55 171.49 1677.85L359.507 1815.85C378.272 1829.62 384.509 1855.98 376.62 1888.18C367.63 1924.87 341.939 1960.9 309.576 1982.22L23.374 2170.77C-6.85687 2190.68 -36.8637 2193.99 -56.8954 2179.61C-77.2403 2165.01 -83.1032 2135.38 -72.5724 2100.36L25.613 1773.83C36.7956 1736.63 64.2631 1701.61 97.2899 1682.43C121.014 1668.65 143.707 1665.17 161.386 1672.24L161.385 1672.25ZM-46.1794 2182.93C-27.2524 2190.5 -2.28715 2185.68 22.8554 2169.12L309.057 1980.57C340.799 1959.66 365.999 1924.32 374.817 1888.32C382.53 1856.85 376.451 1831.09 358.14 1817.65L170.124 1679.65C151.96 1666.32 125.554 1667.97 97.6765 1684.16C65.2852 1702.97 38.3465 1737.33 27.3751 1773.81L-70.8103 2100.35C-81.1068 2134.6 -75.3987 2163.55 -55.5422 2177.8C-52.6272 2179.89 -49.4963 2181.6 -46.1786 2182.93L-46.1794 2182.93Z" fill="#20ACF5"/>
<path d="M139.934 1661.15C141.958 1661.96 143.922 1662.89 145.832 1663.93L374.303 1789.39C397.62 1802.2 407.855 1830.66 401.676 1865.52C394.958 1903.44 371.128 1940.54 337.925 1964.77L37.9178 2183.67C6.01728 2206.95 -27.5353 2212.88 -51.8441 2199.53C-76.1494 2186.19 -86.1172 2156.35 -78.5125 2119.74L-6.97629 1775.37C0.938856 1737.26 25.7115 1700.68 59.2853 1677.51C87.6324 1657.95 117.231 1652.07 139.934 1661.15ZM-44.7493 2200.41C-21.5889 2209.67 8.52973 2203.08 37.2899 2182.09L337.299 1963.19C369.872 1939.42 393.252 1903.02 399.843 1865.82C405.894 1831.67 395.882 1803.81 373.064 1791.27L144.59 1665.82C121.769 1653.29 90.0936 1658.26 59.8548 1679.13C26.9137 1701.86 2.61402 1737.75 -5.15237 1775.14L-76.6886 2119.5C-84.1398 2155.37 -74.3875 2184.59 -50.5987 2197.65C-48.703 2198.69 -46.7518 2199.61 -44.7476 2200.41L-44.7493 2200.41Z" fill="#20ACF5"/>
<path d="M115.249 1651.87L387.821 1760.9C416.782 1772.48 431.573 1802.26 427.391 1840.55C423.21 1878.83 400.93 1917.63 367.789 1944.33L55.8602 2195.66C22.7222 2222.37 -14.3532 2231.39 -43.3098 2219.81C-72.2681 2208.22 -87.0597 2178.45 -82.8783 2140.17L-43.5223 1779.8C-39.3409 1741.51 -17.0589 1702.71 16.0791 1676.01C49.2196 1649.31 86.2925 1640.28 115.249 1651.87ZM55.49 2194.92L55.1199 2194.17L367.049 1942.84C399.57 1916.64 421.432 1878.57 425.534 1841C429.638 1803.43 415.122 1774.21 386.706 1762.84L114.133 1653.81C85.7164 1642.44 49.3373 1651.3 16.8176 1677.5C-15.7021 1703.7 -37.5656 1741.77 -41.6691 1779.34L-81.025 2139.71C-85.1285 2177.28 -70.613 2206.5 -42.1968 2217.86C-13.7806 2229.23 22.6002 2220.38 55.1182 2194.17L55.4883 2194.92L55.49 2194.92Z" fill="#20ACF5"/>
</g>
<g style="mix-blend-mode:overlay">
<path d="M146.083 1230.55C147.125 1228.83 148.468 1227.87 150.036 1227.85C152.897 1227.81 156.055 1230.95 158.701 1236.48L187.362 1296.39C191.288 1304.59 193.244 1316.4 192.123 1325.11C191.486 1330.05 189.9 1333.38 187.656 1334.49L159.822 1348.24C157.918 1349.18 155.766 1348.48 153.597 1346.23C148.514 1340.94 144.586 1328.41 144.459 1317.08L143.632 1243.43C143.568 1237.72 144.469 1233.22 146.084 1230.55L146.083 1230.55ZM189.013 1331.02C189.944 1329.48 190.621 1327.24 190.986 1324.42C192.066 1316.05 190.197 1304.72 186.441 1296.87L157.78 1236.96C155.418 1232.03 152.799 1229.33 150.405 1229.36C146.891 1229.41 144.68 1235.11 144.779 1243.88L145.606 1317.53C145.745 1329.87 150.091 1340.97 154.111 1345.15C155.896 1347.01 157.591 1347.56 159.146 1346.79L186.982 1333.05C187.748 1332.67 188.431 1331.98 189.015 1331.02L189.013 1331.02Z" fill="#20ACF5"/>
<path d="M142.015 1224.16C142.998 1222.54 144.251 1221.58 145.735 1221.41C148.688 1221.09 151.966 1223.99 154.966 1229.57L188.12 1291.24C195.785 1305.51 197.098 1328.76 190.497 1333.42L162.163 1353.43C160.211 1354.81 157.904 1354.37 155.489 1352.16C149.952 1347.09 145.224 1333.89 144.49 1321.45L139.67 1239.77C139.257 1232.76 140.139 1227.25 142.013 1224.16L142.015 1224.16ZM191.325 1330.25C195.494 1323.36 193.724 1303.87 187.253 1291.83L154.099 1230.15C151.45 1225.22 148.636 1222.66 146.177 1222.92C142.389 1223.34 140.237 1230.25 140.82 1240.13L145.64 1321.82C146.44 1335.39 151.536 1346.98 155.924 1351C157.933 1352.84 159.777 1353.19 161.403 1352.04L189.737 1332.03C190.338 1331.61 190.867 1331 191.325 1330.25Z" fill="#20ACF5"/>
<path d="M137.492 1217.72C138.404 1216.22 139.55 1215.26 140.898 1214.98C143.896 1214.34 147.377 1217.02 150.696 1222.52L188.64 1285.41C197.399 1299.92 200.028 1325.48 193.41 1331.76L164.89 1358.81C162.898 1360.7 160.424 1360.55 157.732 1358.39C151.655 1353.51 146.201 1340.01 144.765 1326.3L135.341 1236.37C134.469 1228.04 135.318 1221.31 137.492 1217.72ZM193.68 1329.02C198.338 1321.33 195.513 1298.82 187.83 1286.09L149.887 1223.21C146.943 1218.33 143.933 1215.94 141.41 1216.47C137.98 1217.2 135.127 1223.72 136.481 1236.64L145.904 1326.58C147.45 1341.33 153.329 1353.35 158.077 1357.16C160.314 1358.96 162.377 1359.07 164.046 1357.49L192.566 1330.44C192.976 1330.05 193.348 1329.57 193.682 1329.02L193.68 1329.02Z" fill="#20ACF5"/>
<path d="M132.362 1211.35C133.207 1209.96 134.255 1209.02 135.494 1208.61C138.53 1207.63 142.209 1210.04 145.858 1215.42L188.869 1278.83C198.785 1293.44 202.913 1321.34 196.354 1329.42L168.019 1364.33C166.003 1366.81 163.349 1367.01 160.344 1364.91C153.829 1360.34 147.507 1346.35 145.312 1331.64L130.638 1233.33C129.169 1223.48 129.884 1215.45 132.366 1211.35L132.362 1211.35ZM196.06 1327.29C201.27 1318.68 197.133 1292.9 188.124 1279.62L145.112 1216.21C141.867 1211.42 138.657 1209.25 136.075 1210.09C132.368 1211.3 129.594 1219.01 131.759 1233.5L146.433 1331.82C148.799 1347.68 155.498 1360.04 160.598 1363.61C163.13 1365.38 165.379 1365.2 167.101 1363.08L195.436 1328.17C195.656 1327.9 195.863 1327.6 196.058 1327.28L196.06 1327.29Z" fill="#20ACF5"/>
<path d="M126.672 1205.13C127.443 1203.86 128.387 1202.94 129.496 1202.44C132.562 1201.06 136.441 1203.15 140.421 1208.35L188.752 1271.48C199.882 1286.02 205.753 1316.28 199.296 1326.33L171.575 1369.94C169.555 1373.11 166.712 1373.72 163.352 1371.69C156.41 1367.5 149.181 1353.11 146.163 1337.48L125.554 1230.74C123.341 1219.28 123.845 1209.81 126.673 1205.14L126.672 1205.13ZM198.432 1324.99C204.269 1315.35 198.532 1286.02 188.084 1272.38L139.754 1209.25C136.198 1204.6 132.787 1202.7 130.15 1203.89C125.445 1206.02 124.012 1217.1 126.666 1230.83L147.276 1337.57C150.57 1354.63 157.945 1366.97 163.53 1370.34C166.403 1372.08 168.85 1371.53 170.605 1368.77L198.326 1325.17C198.362 1325.11 198.398 1325.05 198.433 1324.99L198.432 1324.99Z" fill="#20ACF5"/>
<path d="M120.413 1199.16C121.1 1198.02 121.922 1197.15 122.882 1196.58C125.966 1194.74 130.044 1196.46 134.363 1201.42L188.237 1263.34C200.633 1277.58 208.334 1310.15 202.202 1322.4L175.589 1375.56C173.627 1379.48 170.503 1380.6 166.795 1378.7C159.317 1374.87 151.329 1360.52 147.37 1343.8L120.108 1228.73C116.989 1215.56 117.197 1204.47 120.414 1199.16L120.413 1199.16ZM174.151 1375.24C174.296 1375 174.435 1374.75 174.57 1374.48L201.182 1321.32C206.965 1309.77 199.379 1277.81 187.653 1264.33L133.779 1202.42C129.844 1197.9 126.326 1196.37 123.6 1198C118.604 1200.98 117.617 1213.61 121.198 1228.73L148.459 1343.8C152.718 1361.78 160.954 1374.27 166.888 1377.31C169.902 1378.85 172.399 1378.14 174.151 1375.24Z" fill="#20ACF5"/>
<path d="M113.657 1193.46C114.222 1192.52 114.88 1191.76 115.626 1191.19C118.716 1188.82 122.99 1190.08 127.662 1194.76L187.259 1254.38C200.964 1268.08 210.757 1302.92 205.019 1317.55L180.079 1381.14C178.181 1385.98 174.85 1387.68 170.698 1385.92C162.805 1382.57 153.868 1368.06 148.965 1350.63L114.307 1227.42C110.151 1212.64 110.002 1199.49 113.656 1193.45L113.657 1193.46ZM179.551 1380.64L179.023 1380.15L203.962 1316.56C209.392 1302.71 199.752 1268.46 186.771 1255.48L127.173 1195.86C122.897 1191.58 119.177 1190.44 116.413 1192.56C111.174 1196.57 110.748 1210.87 115.376 1227.32L150.034 1350.53C154.768 1367.37 163.272 1381.33 170.711 1384.48C174.42 1386.05 177.294 1384.55 179.023 1380.14L179.551 1380.64L179.551 1380.64Z" fill="#20ACF5"/>
<path d="M106.25 1188.31C106.687 1187.59 107.177 1186.96 107.719 1186.43C110.796 1183.44 115.266 1184.17 120.304 1188.49L185.756 1244.59C200.801 1257.48 212.898 1294.48 207.699 1311.69L185.066 1386.59C183.287 1392.48 179.744 1394.86 175.092 1393.29C166.792 1390.48 156.884 1375.95 150.998 1357.94L108.178 1226.95C102.765 1210.39 102.095 1195.17 106.247 1188.31L106.25 1188.31ZM184.524 1386.13L183.98 1385.68L206.613 1310.79C211.546 1294.46 199.636 1258.01 185.372 1245.78L119.92 1189.69C115.282 1185.71 111.357 1185.04 108.571 1187.75C103.164 1193.01 103.431 1209.05 109.218 1226.76L152.038 1357.75C157.73 1375.16 167.183 1389.17 175.026 1391.82C179.239 1393.24 182.335 1391.12 183.979 1385.68L184.522 1386.13L184.524 1386.13Z" fill="#20ACF5"/>
<path d="M98.2833 1183.78C98.5546 1183.33 98.8469 1182.91 99.1587 1182.53C102.194 1178.8 106.857 1178.89 112.286 1182.78L183.666 1233.97C190.948 1239.19 198.294 1250.13 203.823 1263.97C209.954 1279.32 212.392 1294.94 210.186 1304.73L190.57 1391.79C188.972 1398.88 185.223 1402.06 180.015 1400.75C171.183 1398.53 160.535 1384.45 153.519 1365.71L101.755 1227.46C94.8831 1209.11 93.5547 1191.58 98.2836 1183.77L98.2833 1183.78ZM187.583 1395.95C188.377 1394.63 189.007 1392.97 189.457 1390.98L209.073 1303.92C211.206 1294.45 208.815 1279.28 202.837 1264.3C197.543 1251.05 190.275 1240.19 183.392 1235.26L112.012 1184.07C106.981 1180.46 102.852 1180.36 100.07 1183.77C94.5985 1190.5 95.7052 1208.34 102.758 1227.18L154.522 1365.43C161.206 1383.28 171.629 1397.19 179.868 1399.26C183.138 1400.09 185.779 1398.92 187.58 1395.94L187.583 1395.95Z" fill="#20ACF5"/>
<path d="M89.7756 1179.99C89.8335 1179.9 89.8912 1179.8 89.9504 1179.71C92.9061 1175.1 97.7548 1174.42 103.603 1177.8L180.908 1222.53C188.486 1226.91 196.51 1237.3 202.924 1251.01C210.614 1267.46 214.248 1284.93 212.406 1296.58L196.595 1396.64C195.26 1405.09 191.317 1409.21 185.489 1408.25C176.266 1406.73 164.643 1392.93 156.566 1373.92L95.0718 1229.13C86.5284 1209.02 84.376 1188.91 89.7756 1179.99ZM195.466 1395.92L211.278 1295.86C213.065 1284.55 209.507 1267.54 201.994 1251.47C195.765 1238.15 188.026 1228.1 180.757 1223.89L103.452 1179.17C97.9948 1176.01 93.662 1176.6 90.9212 1180.88C85.5429 1189.32 87.6392 1208.97 96.0392 1228.75L157.533 1373.54C165.357 1391.96 176.504 1405.3 185.269 1406.75C190.603 1407.62 194.224 1403.78 195.466 1395.92Z" fill="#20ACF5"/>
<path d="M80.7138 1177.17C83.6121 1172.39 88.3823 1171.17 94.2696 1173.75L177.418 1210.29C185.305 1213.76 194.017 1223.5 201.32 1237.02C210.652 1254.31 215.621 1273.52 214.285 1287.16L203.146 1401.02C202.173 1410.98 198.053 1416.19 191.548 1415.7C181.799 1414.97 169.49 1401.94 160.189 1382.51L88.1795 1232.12C78.1239 1211.12 74.8084 1188.97 80.1193 1178.26C80.307 1177.88 80.5056 1177.52 80.7141 1177.17L80.7138 1177.17ZM199.302 1409.86C200.695 1407.56 201.615 1404.37 202.004 1400.38L213.143 1286.52C214.442 1273.26 209.578 1254.51 200.45 1237.61C193.358 1224.48 184.953 1215.04 177.389 1211.72L94.2407 1175.18C88.3107 1172.57 83.7874 1174.01 81.1378 1179.34C76.021 1189.66 79.2941 1211.16 89.0964 1231.64L161.106 1382.03C169.985 1400.58 182.098 1413.5 191.247 1414.19C194.699 1414.45 197.426 1412.95 199.298 1409.85L199.302 1409.86Z" fill="#20ACF5"/>
<path d="M71.1507 1175.49C74.0019 1170.78 78.5762 1169.13 84.3038 1170.84L173.116 1197.29C181.335 1199.73 190.765 1208.76 198.989 1222.06C209.83 1239.6 216.407 1260.91 215.742 1276.37L210.225 1404.77C209.73 1416.24 205.355 1422.89 198.223 1423.01C188.11 1423.2 174.847 1410.81 164.434 1391.45L81.1398 1236.61C69.6407 1215.23 64.9437 1191.34 69.7192 1178.5C70.1313 1177.39 70.6098 1176.39 71.1505 1175.5L71.1507 1175.49ZM209.651 1404.49L209.078 1404.22L214.595 1275.82C215.242 1260.75 208.804 1239.93 198.191 1222.77C190.209 1209.86 181.107 1201.11 173.22 1198.76L84.4077 1172.31C77.9522 1170.39 73.2414 1172.87 70.7842 1179.47C66.1643 1191.9 70.7789 1215.15 82.0091 1236.03L165.303 1390.87C175.408 1409.65 188.183 1421.68 197.849 1421.5C204.615 1421.38 208.602 1415.24 209.076 1404.22L209.65 1404.49L209.651 1404.49Z" fill="#20ACF5"/>
<path d="M61.1472 1175.11C63.9325 1170.51 68.264 1168.47 73.7431 1169.3L167.928 1183.57C176.511 1184.87 186.71 1193.11 195.911 1206.17C208.39 1223.89 216.544 1246.65 216.683 1264.15L217.819 1407.73C217.924 1421.01 213.45 1429.16 205.545 1430.08C195.09 1431.31 180.882 1419.75 169.347 1400.65L74.0261 1242.8C61.0994 1221.39 54.8507 1195.89 58.8285 1180.78C59.4052 1178.59 60.1821 1176.7 61.1445 1175.11L61.1472 1175.11ZM216.67 1407.28L215.535 1263.69C215.4 1246.61 207.414 1224.35 195.192 1207C186.259 1194.32 176.407 1186.33 168.162 1185.07L73.977 1170.8C67.0361 1169.75 62.0483 1173.6 59.9305 1181.65C56.0687 1196.32 62.1975 1221.18 74.8367 1242.11L170.158 1399.97C181.361 1418.52 195.076 1429.75 205.099 1428.58C212.553 1427.71 216.77 1419.94 216.669 1407.28L216.67 1407.28Z" fill="#20ACF5"/>
<path d="M50.7665 1176.21C53.4594 1171.76 57.5023 1169.4 62.6353 1169.39L161.779 1169.22C170.759 1169.2 181.8 1176.56 192.069 1189.4C206.13 1206.98 215.921 1230.93 217.01 1250.41L225.911 1409.75C226.76 1424.98 222.256 1434.83 213.549 1436.78C202.615 1439.23 187.834 1428.99 174.974 1410.05L66.9307 1250.88C52.4055 1229.49 44.6238 1203.21 47.5704 1185.51C48.1869 1181.8 49.2668 1178.69 50.765 1176.21L50.7665 1176.21ZM221.259 1429.12C223.999 1424.59 225.24 1417.86 224.767 1409.38L215.866 1250.05C214.803 1231 205.21 1207.55 191.431 1190.33C181.459 1177.86 170.782 1170.72 162.14 1170.73L62.9982 1170.9C55.424 1170.91 50.3461 1176.37 48.7023 1186.25C45.8336 1203.49 53.4595 1229.14 67.6777 1250.09L175.721 1409.25C188.222 1427.66 202.517 1437.64 213.034 1435.29C216.508 1434.51 219.278 1432.39 221.262 1429.11L221.259 1429.12Z" fill="#20ACF5"/>
<path d="M40.0836 1179.01C42.651 1174.77 46.357 1172.15 51.046 1171.37L154.59 1154.32C164.003 1152.76 175.974 1159.11 187.431 1171.73C202.986 1188.86 214.44 1213.73 216.615 1235.1L234.472 1410.61C236.232 1427.91 231.783 1439.7 222.267 1442.96C211.049 1446.79 195.373 1437.81 181.358 1419.52L59.9556 1261.08C44.1268 1240.42 34.5434 1213.09 36.1094 1193.09C36.5595 1187.33 37.9168 1182.59 40.0845 1179.01L40.0836 1179.01ZM233.902 1410.47L233.333 1410.33L215.477 1234.82C213.349 1213.91 202.123 1189.55 186.876 1172.76C175.74 1160.5 164.147 1154.32 155.069 1155.82L51.5241 1172.88C43.2641 1174.24 38.1941 1181.63 37.2515 1193.69C35.7246 1213.22 45.1167 1239.94 60.6225 1260.17L182.026 1418.62C195.662 1436.42 210.856 1445.18 221.676 1441.48C230.782 1438.36 235.031 1427.01 233.335 1410.33L233.905 1410.47L233.902 1410.47Z" fill="#20ACF5"/>
<path d="M29.1905 1183.7C31.5902 1179.73 34.9037 1176.96 39.0517 1175.55L146.288 1138.98C156.159 1135.61 169.16 1140.79 181.958 1153.18C198.883 1169.56 212.002 1195.07 215.38 1218.16L243.462 1410.11C246.308 1429.56 242.034 1443.53 231.734 1448.41C220.276 1453.85 203.722 1446.39 188.534 1428.96L53.2168 1273.58C35.9369 1253.73 24.7218 1226.38 24.6433 1203.9C24.6145 1195.5 26.1842 1188.66 29.1919 1183.7L29.1905 1183.7ZM242.333 1409.92L214.252 1217.97C210.944 1195.36 198.083 1170.37 181.489 1154.3C169.039 1142.25 156.424 1137.2 146.879 1140.45L39.643 1177.03C30.6604 1180.09 25.7398 1189.8 25.7895 1204.36C25.8647 1226.35 36.8587 1253.13 53.797 1272.58L189.115 1427.96C203.908 1444.94 219.984 1452.23 231.069 1446.97C240.985 1442.26 245.089 1428.76 242.333 1409.92Z" fill="#20ACF5"/>
<path d="M18.3318 1190.43C20.5009 1186.85 23.3249 1184.07 26.7557 1182.23L136.798 1123.35C147.138 1117.82 161.275 1121.61 175.588 1133.73C194.026 1149.36 208.429 1174.58 213.178 1199.55L252.822 1408.03C256.878 1429.36 252.825 1446.15 241.978 1452.94C230.159 1460.35 213.17 1454.85 196.535 1438.22L46.8485 1288.62C28.4969 1270.28 15.3741 1242.69 13.4137 1218.33C12.487 1206.8 14.2421 1197.18 18.3318 1190.43ZM252.268 1407.99L251.712 1407.94L212.067 1199.46C207.412 1174.98 193.291 1150.26 175.211 1134.94C161.268 1123.12 147.518 1119.42 137.491 1124.79L27.4482 1183.66C17.8767 1188.78 13.1776 1201.53 14.5557 1218.65C16.4746 1242.5 29.3436 1269.54 47.337 1287.52L197.024 1437.12C213.246 1453.34 229.778 1458.72 241.246 1451.54C251.738 1444.96 255.651 1428.66 251.711 1407.94L252.267 1407.98L252.268 1407.99Z" fill="#20ACF5"/>
<path d="M7.44844 1199.4C9.29969 1196.34 11.5825 1193.77 14.2783 1191.74L126.054 1107.6C136.849 1099.48 152.232 1101.59 168.259 1113.39C187.793 1127.77 203.741 1153.01 209.881 1179.26L262.49 1404.14C267.974 1427.58 264.438 1447.07 253.029 1456.26C241.095 1465.89 223.286 1462.48 205.388 1447.16L41.0028 1306.42C21.4173 1289.65 6.73236 1262.92 2.67715 1236.66C0.307052 1221.32 2.04741 1208.32 7.44579 1199.4L7.44844 1199.4ZM261.945 1404.13L261.398 1404.13L208.789 1179.25C202.768 1153.52 187.128 1128.77 167.971 1114.66C152.33 1103.14 137.338 1101.07 126.837 1108.97L15.0606 1193.11C4.80804 1200.83 0.706025 1216.76 3.80513 1236.83C7.77889 1262.57 22.1814 1288.77 41.3897 1305.22L205.775 1445.96C223.251 1460.92 240.616 1464.26 252.23 1454.9C263.318 1445.96 266.746 1426.98 261.4 1404.13L261.947 1404.13L261.945 1404.13Z" fill="#20ACF5"/>
<path d="M-3.18838 1210.78C-1.76207 1208.42 -0.111298 1206.3 1.76348 1204.42L113.993 1091.92C125.193 1080.69 141.918 1080.77 159.878 1092.13C180.345 1105.07 197.767 1130.03 205.347 1157.27L272.379 1398.16C279.46 1423.61 276.666 1445.99 264.902 1458.03C252.953 1470.26 234.342 1469.34 215.118 1455.57L35.8564 1327.18C15.4373 1312.55 -1.09855 1286.48 -7.29842 1259.13C-11.7522 1239.48 -10.2209 1222.39 -3.19103 1210.78L-3.18838 1210.78ZM268.585 1450.82C276.11 1438.4 277.2 1419.41 271.312 1398.25L204.28 1157.36C196.845 1130.64 179.755 1106.16 159.678 1093.46C142.121 1082.36 125.782 1082.27 114.851 1093.23L2.6221 1205.72C-8.21979 1216.59 -11.4353 1236.07 -6.20222 1259.15C-0.122127 1285.97 16.0993 1311.55 36.1283 1325.9L215.39 1454.29C234.19 1467.76 252.374 1468.67 264.036 1456.73C265.747 1454.98 267.264 1453 268.582 1450.82L268.585 1450.82Z" fill="#20ACF5"/>
<path d="M-13.2191 1224.43C-12.4149 1223.1 -11.548 1221.83 -10.6207 1220.63L100.558 1076.55C111.906 1061.85 130.516 1059.38 150.34 1069.96C171.9 1081.47 190.252 1105.27 199.433 1133.62L282.392 1389.85C291.213 1417.1 289.42 1442.51 277.591 1457.84C265.765 1473.17 246.378 1475.2 225.735 1463.28L31.5975 1351.13C10.1137 1338.72 -7.78146 1314.33 -16.273 1285.88C-23.4421 1261.87 -22.2459 1239.34 -13.2191 1224.43ZM279.243 1452.84C288.452 1437.63 289.303 1414.6 281.349 1390.03L198.392 1133.8C189.385 1105.98 171.381 1082.64 150.228 1071.35C130.81 1060.98 112.588 1063.39 101.483 1077.78L-9.69448 1221.86C-20.795 1236.25 -22.8631 1260.14 -15.2166 1285.75C-6.88673 1313.66 10.6706 1337.59 31.7487 1349.76L225.886 1461.91C246.108 1473.59 265.09 1471.61 276.665 1456.61C277.587 1455.41 278.447 1454.16 279.245 1452.84L279.243 1452.84Z" fill="#20ACF5"/>
<path d="M-22.6809 1240.74L85.7032 1061.75C97.2176 1042.73 117.336 1037.19 139.52 1046.92C161.702 1056.64 181.315 1079.61 191.984 1108.36L292.4 1378.91C303.068 1407.65 302.562 1436.17 291.048 1455.18C279.533 1474.2 259.414 1479.75 237.232 1470.02L28.431 1378.45C6.24899 1368.73 -13.3649 1345.76 -24.0328 1317.01C-34.7019 1288.27 -34.195 1259.76 -22.6809 1240.74ZM291.897 1379.05L291.393 1379.19L190.978 1108.63C180.507 1080.43 161.263 1057.89 139.494 1048.34C117.727 1038.8 97.9844 1044.24 86.685 1062.9L-21.7005 1241.89C-32.9999 1260.55 -33.4953 1288.53 -23.0276 1316.74C-12.56 1344.94 6.68741 1367.48 28.4544 1377.03L237.256 1468.59C259.023 1478.14 278.766 1472.7 290.065 1454.04C301.364 1435.38 301.861 1407.4 291.392 1379.19L291.895 1379.05L291.897 1379.05Z" fill="#20ACF5"/>
</g>
<g style="mix-blend-mode:overlay">
<path d="M114.477 827.698C115.372 828.287 115.889 829.081 115.942 830.037C116.04 831.782 114.543 833.794 111.836 835.559L82.4935 854.673C78.475 857.291 72.5908 858.805 68.1834 858.356C65.6812 858.102 63.9641 857.224 63.3464 855.885L55.6799 839.271C55.1555 838.134 55.4462 836.802 56.5222 835.418C59.0416 832.172 65.234 829.436 70.9271 829.051L107.934 826.551C110.805 826.357 113.092 826.785 114.476 827.698L114.477 827.698ZM65.1277 856.618C65.9268 857.145 67.0719 857.497 68.4968 857.644C72.7355 858.076 78.3811 856.629 82.2265 854.124L111.569 835.01C113.987 833.435 115.274 831.763 115.191 830.303C115.071 828.16 112.145 826.965 107.739 827.263L70.7316 829.763C64.5324 830.182 59.0696 833.136 57.0761 835.702C56.1915 836.842 55.9588 837.891 56.3869 838.819L64.0524 855.434C64.2641 855.892 64.6276 856.29 65.1271 856.62L65.1277 856.618Z" fill="#20ACF5"/>
<path d="M117.58 825.042C118.422 825.598 118.939 826.337 119.061 827.237C119.303 829.031 117.936 831.11 115.212 833.092L85.1006 854.995C78.1384 860.06 66.4809 861.491 63.9608 857.589L53.1333 840.84C52.3881 839.686 52.5461 838.266 53.5925 836.733C55.9916 833.216 62.4998 829.973 68.7306 829.188L109.669 824.034C113.18 823.592 115.974 823.981 117.581 825.04L117.58 825.042ZM65.5771 858.008C69.1517 860.366 78.9054 858.757 84.7829 854.482L114.894 832.579C117.301 830.828 118.514 829.042 118.313 827.549C118.002 825.248 114.467 824.122 109.518 824.745L68.5792 829.9C61.778 830.756 56.0881 834.18 54.1853 836.967C53.3136 838.243 53.1881 839.377 53.8092 840.338L64.6366 857.087C64.8669 857.443 65.185 857.75 65.5771 858.008Z" fill="#20ACF5"/>
<path d="M120.694 822.107C121.476 822.623 121.986 823.296 122.166 824.112C122.568 825.923 121.315 828.12 118.638 830.295L88.0491 855.155C80.9885 860.893 68.211 863.19 64.8735 859.322L50.5007 842.65C49.4978 841.486 49.5035 839.972 50.5184 838.27C52.8091 834.429 59.446 830.735 66.2986 829.487L111.26 821.3C115.424 820.542 118.83 820.877 120.694 822.107ZM66.2576 859.412C70.2507 862.046 81.4903 859.713 87.6829 854.679L118.27 829.82C120.643 827.891 121.765 825.989 121.427 824.464C120.967 822.391 117.613 820.826 111.153 822.003L66.1917 830.19C58.8175 831.533 52.9356 835.446 51.1467 838.447C50.303 839.861 50.3016 841.124 51.1432 842.099L65.5159 858.771C65.7231 859.011 65.9712 859.225 66.257 859.414L66.2576 859.412Z" fill="#20ACF5"/>
<path d="M123.757 818.804C124.481 819.282 124.983 819.896 125.219 820.641C125.798 822.467 124.683 824.778 122.078 827.15L91.3637 855.117C84.2839 861.564 70.3695 864.839 66.1299 861.055L47.8121 844.709C46.5085 843.546 46.336 841.932 47.3136 840.041C49.4322 835.941 56.2948 831.704 63.6309 829.966L112.663 818.347C117.572 817.184 121.628 817.403 123.757 818.807L123.757 818.804ZM67.1949 860.818C71.6606 863.764 84.5131 860.541 90.9459 854.683L121.661 826.717C123.979 824.606 124.984 822.589 124.492 821.036C123.785 818.806 119.834 817.322 112.603 819.036L63.5714 830.655C55.6612 832.529 49.6308 836.951 47.9735 840.161C47.1503 841.754 47.3029 843.122 48.4165 844.115L66.7342 860.461C66.8769 860.588 67.0308 860.706 67.1971 860.816L67.1949 860.818Z" fill="#20ACF5"/>
<path d="M126.731 815.163C127.392 815.599 127.878 816.15 128.16 816.813C128.939 818.647 127.99 821.071 125.485 823.64L95.054 854.846C88.0464 862.032 72.9915 866.435 67.7625 862.767L45.0889 847.031C43.4377 845.884 43.0557 844.166 43.9846 842.06C45.9042 837.711 52.9435 832.909 60.7203 830.643L113.823 815.175C119.526 813.514 124.303 813.564 126.728 815.163L126.731 815.163ZM68.4132 862.203C73.4179 865.504 88.0077 861.208 94.5859 854.463L125.015 823.258C127.255 820.962 128.118 818.829 127.447 817.252C126.251 814.438 120.643 813.864 113.809 815.856L60.7046 831.325C52.2165 833.797 46.2125 838.633 44.6675 842.132C43.8726 843.932 44.2117 845.411 45.649 846.408L68.3226 862.143C68.352 862.164 68.3815 862.184 68.412 862.204L68.4132 862.203Z" fill="#20ACF5"/>
<path d="M129.564 811.181C130.153 811.57 130.613 812.048 130.926 812.618C131.935 814.45 131.181 816.985 128.803 819.756L99.1348 854.311C92.308 862.261 76.1416 867.843 69.8167 864.433L42.3684 849.633C40.3445 848.541 39.6967 846.666 40.5512 844.351C42.2755 839.684 49.2741 834.42 57.5715 831.551L114.688 811.796C121.225 809.536 126.805 809.362 129.563 811.182L129.564 811.181ZM42.4909 848.747C42.6152 848.828 42.7456 848.907 42.8848 848.981L70.3331 863.782C76.2991 866.998 92.159 861.502 98.6168 853.981L128.285 819.426C130.452 816.903 131.125 814.714 130.234 813.095C128.598 810.127 122.22 809.866 114.719 812.461L57.6017 832.216C48.6773 835.302 42.6238 840.666 41.2557 844.37C40.5607 846.251 40.9881 847.756 42.4909 848.747Z" fill="#20ACF5"/>
<path d="M132.247 806.904C132.732 807.223 133.133 807.604 133.441 808.044C134.717 809.865 134.195 812.509 131.973 815.486L103.613 853.471C97.0924 862.207 79.8432 869.126 72.3319 866.021L39.6849 852.524C37.2012 851.497 36.2574 849.51 37.0304 846.929C38.4992 842.021 45.5538 836.174 54.1838 832.71L115.191 808.221C122.505 805.285 129.113 804.837 132.248 806.903L132.247 806.904ZM39.9205 852.188L40.1561 851.853L72.8031 865.35C79.9107 868.288 96.8697 861.477 103.047 853.203L131.407 815.217C133.441 812.492 133.914 810.191 132.773 808.562C130.612 805.473 123.412 805.601 115.266 808.871L54.2593 833.359C45.9249 836.705 39.1358 842.272 37.7521 846.898C37.0616 849.204 37.8951 850.917 40.1577 851.853L39.9221 852.188L39.9205 852.188Z" fill="#20ACF5"/>
<path d="M134.633 802.245C135.007 802.492 135.336 802.774 135.617 803.09C137.204 804.887 136.958 807.635 134.924 810.826L108.493 852.289C102.418 861.82 84.1431 870.205 75.3501 867.498L37.083 855.715C34.0731 854.789 32.7809 852.692 33.4437 849.81C34.6278 844.669 41.667 838.229 50.5617 834.149L115.26 804.468C123.439 800.716 131.071 799.895 134.632 802.243L134.633 802.245ZM37.2967 855.372L37.5098 855.028L75.777 866.811C84.1192 869.379 102.121 861.124 107.882 852.087L134.313 810.624C136.186 807.686 136.417 805.273 134.979 803.646C132.188 800.489 124.131 801.086 115.384 805.098L50.6861 834.778C42.0856 838.724 35.2983 844.872 34.1797 849.73C33.5792 852.34 34.7307 854.172 37.511 855.027L37.2978 855.371L37.2967 855.372Z" fill="#20ACF5"/>
<path d="M136.697 797.26C136.93 797.413 137.148 797.58 137.349 797.76C139.306 799.512 139.387 802.36 137.577 805.778L113.775 850.725C111.346 855.311 106.049 860.091 99.2386 863.84C91.687 867.997 83.9005 869.908 78.9172 868.827L34.616 859.215C31.0077 858.432 29.307 856.23 29.8249 853.016C30.7025 847.567 37.4938 840.686 46.7234 835.898L114.827 800.562C123.87 795.871 132.644 794.586 136.699 797.26L136.697 797.26ZM32.4454 857.505C33.126 857.954 33.9783 858.293 34.9952 858.514L79.2964 868.126C84.1119 869.171 91.6784 867.301 99.0434 863.247C105.563 859.657 110.825 854.928 113.12 850.593L136.923 805.646C138.6 802.478 138.539 799.955 136.747 798.35C133.218 795.193 124.277 796.352 114.998 801.167L46.8936 836.502C38.1007 841.064 31.3871 847.802 30.5683 852.886C30.2437 854.904 30.9016 856.484 32.446 857.503L32.4454 857.505Z" fill="#20ACF5"/>
<path d="M138.37 791.965C138.42 791.998 138.468 792.031 138.516 792.064C140.915 793.743 141.387 796.684 139.844 800.344L119.452 848.733C117.453 853.476 112.451 858.654 105.729 862.94C97.6656 868.079 88.9847 870.769 83.0737 869.961L32.3382 863.023C28.0576 862.438 25.8783 860.143 26.2029 856.56C26.7158 850.89 33.3377 843.424 42.6796 837.979L113.807 796.529C123.689 790.77 133.741 788.912 138.37 791.965ZM32.6731 862.315L83.4087 869.253C89.1415 870.037 97.5951 867.405 105.471 862.385C112.001 858.223 116.845 853.227 118.763 848.678L139.155 800.289C140.594 796.873 140.179 794.245 137.955 792.688C133.567 789.635 123.742 791.447 114.025 797.109L42.8977 838.559C33.848 843.833 27.4399 850.997 26.9518 856.385C26.6553 859.664 28.6873 861.77 32.6731 862.315Z" fill="#20ACF5"/>
<path d="M139.541 786.359C142.027 787.998 142.77 790.876 141.628 794.539L125.51 846.271C123.982 851.178 119.319 856.759 112.718 861.582C104.282 867.745 94.758 871.298 87.8634 870.853L30.3173 867.14C25.2842 866.816 22.5505 864.443 22.6215 860.46C22.7264 854.49 28.9418 846.625 38.4558 840.423L112.12 792.403C122.406 785.698 133.452 783.074 138.981 786.025C139.177 786.129 139.363 786.241 139.542 786.359L139.541 786.359ZM25.7688 865.033C26.9632 865.821 28.5882 866.296 30.6058 866.426L88.1519 870.139C94.8574 870.572 104.148 867.095 112.399 861.067C118.81 856.383 123.327 850.998 124.792 846.292L140.91 794.56C142.06 790.87 141.213 788.149 138.465 786.676C133.138 783.833 122.414 786.413 112.387 792.95L38.7229 840.97C29.6391 846.891 23.4715 854.633 23.3734 860.235C23.336 862.349 24.1646 863.972 25.7706 865.031L25.7688 865.033Z" fill="#20ACF5"/>
<path d="M140.128 780.477C142.573 782.09 143.526 784.836 142.823 788.378L131.933 843.294C130.925 848.375 126.641 854.375 120.177 859.754C111.655 866.845 101.116 871.436 93.3255 871.449L28.6231 871.561C22.8441 871.57 19.382 869.08 19.1242 864.731C18.7583 858.565 24.6288 850.135 34.0784 843.256L109.67 788.229C120.106 780.633 131.993 777.119 138.577 779.685C139.147 779.907 139.663 780.171 140.126 780.477L140.128 780.477ZM28.7456 871.204L28.8681 870.846L93.5706 870.735C101.165 870.721 111.46 866.228 119.8 859.287C126.074 854.065 130.228 848.274 131.195 843.397L142.085 788.481C142.877 784.49 141.504 781.682 138.116 780.361C131.744 777.879 120.178 781.325 109.987 788.744L34.3954 843.771C25.2255 850.446 19.5256 858.568 19.8756 864.462C20.1205 868.588 23.3136 870.855 28.8676 870.846L28.7451 871.203L28.7456 871.204Z" fill="#20ACF5"/>
<path d="M140.05 774.362C142.438 775.937 143.581 778.525 143.311 781.891L138.688 839.756C138.267 845.029 134.401 851.476 128.082 857.445C119.511 865.541 108.29 871.134 99.4975 871.693L27.3377 876.276C20.6648 876.7 16.4482 874.191 15.7692 869.391C14.8704 863.044 20.2942 854.06 29.5849 846.503L106.368 784.055C116.78 775.587 129.431 771.082 137.134 773.101C138.251 773.393 139.225 773.816 140.051 774.36L140.05 774.362ZM27.5359 875.563L99.6958 870.979C108.281 870.434 119.253 864.958 127.647 857.029C133.781 851.234 137.532 845.005 137.938 839.94L142.561 782.075C142.901 777.811 140.831 774.871 136.73 773.797C129.25 771.837 116.915 776.251 106.734 784.532L29.9511 846.98C20.9272 854.319 15.6522 862.993 16.514 869.078C17.1539 873.603 21.1717 875.967 27.5354 875.562L27.5359 875.563Z" fill="#20ACF5"/>
<path d="M139.213 768.057C141.522 769.58 142.821 771.983 142.965 775.116L145.738 835.615C145.989 841.095 142.59 848.032 136.414 854.646C127.956 863.704 116.179 870.328 106.412 871.521L26.5451 881.269C18.9108 882.2 13.8335 879.718 12.6169 874.458C11.0884 867.852 15.8387 858.553 25.0146 850.192L102.109 779.945C112.474 770.501 125.471 765.04 134.452 766.359C136.333 766.635 137.929 767.209 139.212 768.057L139.213 768.057ZM16.6811 878.955C19.0303 880.505 22.4499 881.079 26.6985 880.561L106.565 870.813C116.114 869.647 127.64 863.158 135.928 854.283C141.926 847.859 145.229 841.15 144.987 835.876L142.215 775.378C142.003 770.756 139.124 767.805 134.112 767.07C125.365 765.786 112.674 771.135 102.529 780.379L25.4345 850.627C16.5157 858.754 11.8875 867.749 13.3562 874.103C13.8413 876.202 14.9814 877.835 16.6821 878.957L16.6811 878.955Z" fill="#20ACF5"/>
<path d="M137.519 761.613C139.72 763.065 141.137 765.256 141.653 768.097L153.035 830.823C154.07 836.526 151.203 844.003 145.169 851.337C136.98 861.294 124.783 868.958 114.098 870.864L26.3432 886.517C17.6911 888.06 11.6438 885.664 9.74924 879.945C7.51601 873.203 11.6067 863.393 20.4236 854.345L96.7955 775.964C106.753 765.745 120.231 759.156 130.332 759.57C133.239 759.688 135.658 760.388 137.516 761.614L137.519 761.613ZM26.3991 886.165L26.4534 885.814L114.209 870.162C124.666 868.297 136.609 860.786 144.637 851.026C150.5 843.898 153.29 836.656 152.293 831.157L140.911 768.429C140.003 763.425 136.149 760.531 130.062 760.283C120.202 759.88 107.022 766.336 97.268 776.347L20.8949 854.728C12.3162 863.532 8.32401 873.041 10.4778 879.544C12.2904 885.017 18.1138 887.303 26.4544 885.816L26.4001 886.167L26.3991 886.165Z" fill="#20ACF5"/>
<path d="M134.866 755.093C136.924 756.45 138.405 758.397 139.229 760.89L160.522 825.341C162.482 831.274 160.232 839.348 154.35 847.494C146.569 858.267 134.1 866.964 122.585 869.651L26.839 891.989C17.1339 894.253 9.99903 892.023 7.26225 885.87C4.21776 879.025 7.51866 868.721 15.8746 858.98L90.3282 772.19C99.8363 761.107 113.283 753.522 124.586 752.865C128.805 752.62 132.288 753.393 134.866 755.094L134.866 755.093ZM26.902 891.296L122.646 868.958C133.926 866.326 146.143 857.801 153.772 847.239C159.494 839.314 161.69 831.479 159.795 825.742L138.502 761.291C136.719 755.892 131.704 753.152 124.383 753.577C113.33 754.219 100.165 761.654 90.8463 772.517L16.3927 859.307C8.25252 868.795 5.02549 878.803 7.97121 885.425C10.6057 891.349 17.5054 893.488 26.902 891.296Z" fill="#20ACF5"/>
<path d="M131.189 748.648C133.048 749.875 134.522 751.523 135.537 753.567L168.12 819.127C171.182 825.287 169.662 834.017 163.952 843.081C156.595 854.756 144.306 864.229 131.879 867.804L28.1359 897.646C17.5256 900.698 8.97423 898.68 5.26271 892.245C1.21663 885.232 3.52416 874.716 11.4323 864.114L82.5922 768.712C91.3158 757.015 104.833 748.259 117.028 746.403C122.799 745.525 127.68 746.336 131.189 748.648ZM28.1445 897.306L28.1542 896.966L131.898 867.123C144.076 863.619 156.124 854.331 163.337 842.883C168.901 834.054 170.389 825.562 167.419 819.588L134.836 754.029C132.003 748.326 125.464 745.804 116.899 747.109C104.957 748.926 91.7131 757.512 83.1589 768.98L11.999 864.382C4.28642 874.721 2.02595 884.956 5.95136 891.759C9.54332 897.985 17.8433 899.931 28.1553 896.965L28.1456 897.305L28.1445 897.306Z" fill="#20ACF5"/>
<path d="M126.381 742.25C127.969 743.297 129.326 744.62 130.419 746.21L175.749 812.144C180.126 818.511 179.482 827.956 173.983 838.056C167.28 850.367 155.022 860.783 141.993 865.241L30.3566 903.44C18.7194 907.422 8.82657 905.792 3.89342 899.078C-1.26799 892.056 -0.039185 881.096 7.18027 869.758L73.4869 765.626C81.3868 753.22 94.4272 743.534 107.52 740.348C115.169 738.486 121.751 739.195 126.381 742.248L126.381 742.25ZM30.3437 903.107L30.3303 902.774L141.967 864.575C154.742 860.203 166.762 849.988 173.336 837.915C178.703 828.058 179.339 818.853 175.08 812.658L129.751 746.725C125.593 740.677 117.47 738.606 107.464 741.041C94.6326 744.163 81.8482 753.662 74.1002 765.83L7.79363 869.962C0.744455 881.032 -0.464965 891.72 4.55626 898.554C9.35146 905.078 18.986 906.656 30.3308 902.774L30.3442 903.108L30.3437 903.107Z" fill="#20ACF5"/>
<path d="M120.372 736.067C121.595 736.874 122.71 737.823 123.705 738.917L183.305 804.358C189.253 810.889 189.669 821.098 184.445 832.366C178.492 845.207 166.413 856.515 152.924 861.879L33.6276 909.313C21.0266 914.324 9.69875 913.225 3.32568 906.372C-3.14698 899.412 -3.19033 888.029 3.21205 875.924L62.9084 763.048C69.7077 750.191 82.3703 739.393 95.9523 734.869C105.709 731.618 114.345 732.09 120.373 736.065L120.372 736.067ZM7.04851 908.425C13.5014 912.68 23.0742 912.831 33.5542 908.664L152.85 861.23C166.081 855.969 177.929 844.876 183.768 832.28C188.875 821.265 188.475 811.291 182.671 804.917L123.071 739.476C117.313 733.154 107.435 731.719 95.9709 735.538C82.6503 739.975 70.231 750.568 63.5607 763.179L3.86432 876.055C-2.39607 887.893 -2.36163 899.015 3.9557 905.808C4.88319 906.805 5.91793 907.677 7.04914 908.423L7.04851 908.425Z" fill="#20ACF5"/>
<path d="M113.239 730.315C113.929 730.77 114.588 731.264 115.219 731.798L190.669 795.743C198.369 802.269 200.112 813.56 195.329 825.944C190.128 839.413 178.661 851.258 164.653 857.629L38.0777 915.198C24.6186 921.32 11.7924 920.914 3.7646 914.11C-4.26216 907.308 -5.8079 895.533 -0.372375 882.612L50.7525 761.098C56.4096 747.651 68.1881 736.069 82.2579 730.116C94.1374 725.091 105.498 725.21 113.239 730.315ZM6.32383 914.983C14.22 920.191 25.8246 920.086 37.9588 914.567L164.535 856.999C178.277 850.748 189.528 839.128 194.63 825.913C199.315 813.783 197.612 802.727 190.077 796.34L114.625 732.396C107.088 726.012 95.0245 725.397 82.3524 730.758C68.5479 736.597 56.9939 747.96 51.4433 761.153L0.318409 882.667C-5.00681 895.324 -3.49625 906.854 4.35991 913.512C4.98594 914.042 5.64112 914.533 6.32433 914.984L6.32383 914.983Z" fill="#20ACF5"/>
<path d="M104.78 724.983L197.708 786.276C207.581 792.788 210.914 804.915 206.624 818.717C202.334 832.518 191.318 845.109 177.155 852.399L43.8493 921.009C29.6874 928.298 15.3373 928.762 5.46512 922.251C-4.40752 915.739 -7.74037 903.611 -3.45063 889.811L36.9274 759.906C41.2172 746.105 52.234 733.513 66.3959 726.224C80.5589 718.935 94.9079 718.471 104.78 724.983ZM43.7659 920.706L43.6825 920.403L176.989 851.792C190.887 844.638 201.696 832.283 205.905 818.74C210.115 805.197 206.844 793.297 197.156 786.907L104.228 725.612C94.5404 719.222 80.4597 719.678 66.5622 726.83C52.6647 733.983 41.8546 746.339 37.645 759.882L-2.73308 889.787C-6.94268 903.329 -3.67206 915.23 6.01585 921.62C15.7038 928.01 29.785 927.555 43.682 920.402L43.7654 920.705L43.7659 920.706Z" fill="#20ACF5"/>
</g>
<g style="mix-blend-mode:overlay">
<path d="M163.885 237.916C166.02 237.015 168.068 237.038 169.852 238.09C173.108 240.011 174.929 245.119 174.85 252.109L173.978 327.836C173.859 338.207 169.512 350.607 163.412 357.994C159.948 362.188 156.307 364.222 153.157 363.724L114.07 357.554C111.397 357.132 109.351 355.009 108.153 351.411C105.343 342.982 107.86 328.559 114.007 317.858L153.964 248.304C157.064 242.908 160.581 239.311 163.885 237.919L163.885 237.916ZM156.616 361.402C158.523 360.597 160.532 358.961 162.507 356.575C168.376 349.471 172.555 337.58 172.67 327.656L173.542 251.929C173.614 245.688 172.154 241.367 169.429 239.761C165.43 237.403 159.767 241.23 155.01 249.512L115.053 319.066C108.36 330.717 107.11 344.089 109.33 350.757C110.317 353.716 111.925 355.396 114.108 355.741L153.195 361.913C154.272 362.082 155.424 361.906 156.618 361.405L156.616 361.402Z" fill="#20ACF5"/>
<path d="M162.837 229.145C164.848 228.299 166.797 228.257 168.563 229.12C172.08 230.838 174.177 235.793 174.468 243.073L177.689 323.534C178.434 342.138 167.004 364.821 156.96 364.666L113.834 364.019C110.863 363.972 108.5 361.983 106.999 358.259C103.557 349.72 105.542 334.121 111.615 321.973L151.521 242.16C154.944 235.316 159 230.758 162.835 229.142L162.837 229.145ZM159.656 362.263C168.189 358.667 177.013 339.194 176.385 323.489L173.164 243.028C172.908 236.597 171.152 232.27 168.225 230.838C163.715 228.633 157.444 233.638 152.619 243.287L112.713 323.1C106.083 336.359 105.405 350.704 108.132 357.474C109.38 360.575 111.269 362.163 113.743 362.2L156.87 362.848C157.786 362.861 158.719 362.657 159.656 362.263Z" fill="#20ACF5"/>
<path d="M161.299 220.019C163.166 219.233 164.99 219.125 166.673 219.78C170.413 221.234 172.859 226.126 173.555 233.553L181.518 318.423C183.356 338.014 172.138 363.751 161.172 365.106L113.926 370.926C110.627 371.332 107.912 369.503 106.071 365.634C101.915 356.9 103.245 340.528 109.232 326.706L148.515 236.015C152.154 227.616 156.849 221.894 161.299 220.019ZM162.997 362.725C172.531 358.709 181.835 335.693 180.221 318.51L172.259 233.643C171.641 227.058 169.567 222.758 166.419 221.532C162.138 219.87 155.295 224.023 149.651 237.052L110.368 327.743C103.925 342.617 103.897 357.895 107.144 364.717C108.674 367.933 110.942 369.451 113.707 369.109L160.953 363.289C161.633 363.204 162.317 363.015 162.999 362.728L162.997 362.725Z" fill="#20ACF5"/>
<path d="M159.039 210.544C160.769 209.815 162.475 209.652 164.1 210.121C168.078 211.274 170.895 216.054 172.032 223.588L185.43 312.417C188.52 332.893 177.696 361.849 165.799 364.929L114.4 378.235C110.743 379.183 107.633 377.554 105.406 373.524C100.579 364.79 101.202 347.359 106.889 332.079L144.892 229.946C148.697 219.72 153.962 212.688 159.044 210.547L159.039 210.544ZM166.652 362.728C177.314 358.237 186.956 331.252 184.149 312.647L170.75 223.818C169.74 217.115 167.319 212.883 163.935 211.903C159.077 210.495 151.662 215.819 146.058 230.88L108.056 333.013C101.924 349.489 102.633 365.646 106.414 372.481C108.291 375.876 110.933 377.244 114.057 376.435L165.456 363.128C165.856 363.024 166.254 362.89 166.651 362.723L166.652 362.728Z" fill="#20ACF5"/>
<path d="M156.062 200.823C157.641 200.156 159.216 199.946 160.748 200.235C164.981 201.036 168.2 205.655 169.811 213.247L189.376 305.455C193.882 326.689 183.715 359.051 170.838 364.049L115.304 385.922C111.259 387.514 107.709 386.136 105.039 381.937C99.522 373.26 99.3427 354.833 104.61 338.126L140.579 224.048C144.442 211.798 150.272 203.268 156.06 200.828L156.062 200.823ZM170.605 362.201C182.553 357.166 192.354 325.769 188.125 305.837L168.56 213.631C167.121 206.846 164.321 202.732 160.68 202.043C154.184 200.815 146.414 210.211 141.787 224.892L105.817 338.973C100.067 357.208 101.551 373.813 105.988 380.795C108.271 384.387 111.338 385.554 114.856 384.166L170.39 362.293C170.462 362.264 170.534 362.236 170.605 362.204L170.605 362.201Z" fill="#20ACF5"/>
<path d="M152.306 190.945C153.712 190.352 155.125 190.099 156.525 190.222C161.033 190.607 164.687 195.008 166.812 202.612L193.315 297.474C199.413 319.301 190.032 355.078 176.302 362.357L116.715 393.94C112.321 396.268 108.17 395.18 105.034 390.863C98.7123 382.156 97.6528 363.247 102.46 344.879L135.543 218.435C139.33 203.965 145.721 193.721 152.306 190.948L152.306 190.945ZM115.269 392.655C115.565 392.529 115.862 392.389 116.164 392.228L175.751 360.645C188.701 353.78 197.869 318.657 192.1 298.009L165.597 203.148C163.662 196.22 160.534 192.381 156.552 192.039C149.249 191.415 141.119 202.572 136.775 219.179L103.692 345.624C98.5224 365.38 100.897 382.71 105.915 389.619C108.462 393.128 111.682 394.167 115.269 392.655Z" fill="#20ACF5"/>
<path d="M147.837 180.982C148.993 180.494 150.16 180.229 151.321 180.203C156.129 180.097 160.256 184.21 162.941 191.782L197.186 288.411C205.061 310.631 196.786 349.963 182.179 359.741L118.692 402.238C113.861 405.471 109.154 404.782 105.44 400.291C98.3787 391.754 96.3379 372.044 100.474 352.363L129.717 213.236C133.222 196.555 140.356 184.134 147.837 180.979L147.837 180.982ZM118.371 401.411L118.05 400.584L181.537 358.086C195.359 348.834 203.482 310.155 196.022 289.108L161.778 192.479C159.321 185.546 155.75 181.931 151.45 182.027C143.3 182.202 134.881 195.304 130.976 213.881L101.733 353.008C97.7383 372.014 99.5955 390.911 106.252 398.956C109.569 402.967 113.652 403.527 118.052 400.581L118.373 401.408L118.371 401.411Z" fill="#20ACF5"/>
<path d="M142.324 171.094C143.218 170.718 144.12 170.465 145.026 170.34C150.164 169.645 154.811 173.387 158.105 180.879L200.921 278.217C210.763 300.589 203.891 343.526 188.461 356.087L121.305 410.751C116.024 415.051 110.7 414.855 106.314 410.202C98.4906 401.897 95.3648 381.502 98.7113 360.605L123.051 208.604C126.129 189.388 133.82 174.677 142.32 171.094L142.324 171.094ZM120.944 409.954L120.581 409.157L187.737 354.494C202.377 342.577 209.154 300.287 199.824 279.072L157.008 181.735C153.975 174.837 149.912 171.523 145.26 172.155C136.23 173.381 127.625 188.589 124.333 209.137L99.993 361.138C96.7573 381.344 99.6612 400.935 107.054 408.782C111.025 412.996 115.703 413.127 120.581 409.154L120.944 409.951L120.944 409.954Z" fill="#20ACF5"/>
<path d="M135.839 161.394C136.395 161.159 136.956 160.969 137.521 160.823C143.022 159.408 148.241 162.683 152.214 170.045L204.454 266.839C209.782 276.716 212.015 291.982 210.576 308.733C208.982 327.307 203.065 343.605 195.135 351.268L124.634 419.39C118.892 424.939 112.891 425.353 107.733 420.561C98.9862 412.437 94.7713 391.959 97.2462 369.609L115.508 204.69C117.934 182.793 126.161 165.47 135.841 161.391L135.839 161.394ZM118.952 421.24C120.577 420.555 122.212 419.431 123.829 417.867L194.33 349.745C201.994 342.34 207.72 326.487 209.276 308.372C210.652 292.336 208.467 277.192 203.43 267.857L151.191 171.06C147.509 164.24 142.899 161.32 137.859 162.614C127.943 165.168 119.288 182.639 116.799 205.11L98.5375 370.029C96.1801 391.322 100.232 411.488 108.392 419.068C111.631 422.076 115.263 422.79 118.949 421.236L118.952 421.24Z" fill="#20ACF5"/>
<path d="M128.327 152.025C128.445 151.976 128.562 151.929 128.68 151.882C134.581 149.584 140.436 152.268 145.166 159.44L207.69 254.236C213.819 263.528 217.122 278.743 216.754 295.98C216.31 316.654 210.721 335.497 202.168 345.156L128.747 428.061C122.552 435.056 115.808 436.219 109.755 431.332C100.175 423.599 94.7013 402.721 96.1318 379.381L107.028 201.68C108.542 176.992 117.275 156.682 128.327 152.025ZM127.876 426.608L201.296 343.703C209.593 334.335 215.014 315.971 215.447 295.777C215.806 279.034 212.641 264.323 206.763 255.409L144.239 160.613C139.825 153.922 134.6 151.511 129.128 153.641C118.366 157.865 109.823 177.709 108.334 201.984L97.4369 379.686C96.0497 402.295 101.237 422.425 110.34 429.774C115.88 434.246 122.108 433.121 127.876 426.608Z" fill="#20ACF5"/>
<path d="M119.651 143.186C125.584 140.684 131.652 142.805 136.868 149.258L210.54 240.385C217.528 249.027 221.964 264.116 222.707 281.78C223.658 304.356 218.607 325.75 209.524 337.614L133.723 436.641C127.094 445.303 119.543 447.368 112.465 442.456C101.856 435.097 95.1785 414.472 95.4531 389.913L97.5826 199.76C97.8795 173.207 106.43 150.191 118.378 143.793C118.801 143.565 119.226 143.364 119.653 143.183L119.651 143.186ZM124.471 442.29C127.322 441.089 130.128 438.737 132.785 435.264L208.586 336.237C217.42 324.698 222.329 303.814 221.399 281.735C220.676 264.581 216.417 249.99 209.716 241.701L136.044 150.575C130.79 144.075 124.878 142.33 118.929 145.502C107.418 151.666 99.1765 174.05 98.8862 199.936L96.7568 390.089C96.4932 413.537 103.008 433.928 112.964 440.834C116.721 443.44 120.636 443.901 124.468 442.284L124.471 442.29Z" fill="#20ACF5"/>
<path d="M109.779 135.066C115.616 132.606 121.7 134.191 127.225 139.709L212.901 225.257C220.828 233.175 226.472 248.085 228.381 266.171C230.897 290.015 226.492 314.483 217.159 328.508L139.639 444.999C132.714 455.402 124.077 458.637 115.947 453.877C104.418 447.127 96.3097 426.444 95.2894 401.188L87.1338 199.151C86.0083 171.258 93.9678 145.66 106.492 136.903C107.574 136.145 108.671 135.533 109.777 135.069L109.779 135.066ZM139.144 444.349L138.648 443.699L216.167 327.208C225.265 313.536 229.553 289.624 227.087 266.288C225.234 248.733 219.808 234.307 212.2 226.709L126.524 141.16C120.297 134.942 113.598 134.039 107.155 138.544C95.0357 147.021 87.3398 171.96 88.4402 199.199L96.5958 401.236C97.5862 425.745 105.345 445.752 116.365 452.202C124.078 456.717 131.991 453.698 138.646 443.699L139.141 444.349L139.144 444.349Z" fill="#20ACF5"/>
<path d="M98.6884 127.859C104.39 125.457 110.416 126.511 116.146 131.039L214.653 208.86C223.629 215.951 230.58 230.647 233.723 249.182C237.988 274.32 234.567 301.217 225.01 317.7L146.574 452.973C139.321 465.483 129.743 470.051 120.296 465.507C107.802 459.499 98.1622 438.954 95.7319 413.169L75.6612 200.076C72.9389 171.178 80.0358 143.016 92.918 131.588C94.7855 129.931 96.716 128.687 98.6862 127.856L98.6884 127.859ZM145.529 451.76L223.965 316.487C233.298 300.393 236.629 274.084 232.452 249.464C229.399 231.471 222.703 217.244 214.082 210.429L115.575 132.609C108.315 126.875 100.542 127.067 93.6836 133.151C81.1749 144.25 74.2961 171.733 76.9573 199.989L97.028 413.083C99.3879 438.127 108.65 458.032 120.628 463.792C129.535 468.077 138.611 463.69 145.527 451.76L145.529 451.76Z" fill="#20ACF5"/>
<path d="M86.3447 121.792C91.8578 119.468 97.7397 120.019 103.545 123.522L215.673 191.208C225.83 197.339 234.222 211.784 238.698 230.837C244.827 256.926 242.593 286.062 233.006 305.059L154.601 460.396C147.105 475.244 136.543 481.393 125.621 477.262C111.905 472.076 100.89 452.364 96.8762 425.819L63.1533 202.797C58.62 172.813 64.4127 142.88 77.5712 128.314C80.3273 125.261 83.2774 123.082 86.3426 121.792L86.3447 121.792ZM138.591 475.356C144.199 472.992 149.341 467.533 153.512 459.27L231.917 303.933C241.292 285.361 243.466 256.839 237.461 231.273C233.114 212.77 225.015 198.772 215.241 192.873L103.116 125.187C94.5498 120.016 85.7844 121.649 78.441 129.779C65.6268 143.966 60.0007 173.215 64.4388 202.564L98.1617 425.586C102.064 451.388 112.68 470.515 125.871 475.506C130.228 477.155 134.534 477.066 138.595 475.356L138.591 475.356Z" fill="#20ACF5"/>
<path d="M72.7217 117.098C77.9769 114.883 83.6186 114.966 89.346 117.452L215.823 172.33C227.321 177.318 237.324 191.457 243.265 211.116C251.333 237.804 250.465 268.944 241.058 290.448L163.795 467.063C156.178 484.476 144.605 492.473 132.045 489.011C117.237 484.928 104.509 465.788 98.8283 439.063L49.6121 207.57C43.1949 177.388 47.5358 145.236 60.4132 127.567C64.1189 122.482 68.2825 118.973 72.7197 117.104L72.7217 117.098ZM163.23 466.54L162.664 466.021L239.929 289.406C249.135 268.361 249.974 237.86 242.067 211.701C236.291 192.594 226.619 178.877 215.53 174.065L89.0531 119.184C78.9631 114.808 69.1308 118.261 61.3715 128.91C48.803 146.158 44.5812 177.614 50.8675 207.18L100.084 438.676C105.612 464.679 117.917 483.281 132.199 487.219C144.218 490.533 155.323 482.806 162.668 466.021L163.235 466.541L163.23 466.54Z" fill="#20ACF5"/>
<path d="M57.8081 114.037C62.7209 111.966 68.0022 111.64 73.4751 113.153L214.957 152.281C227.981 155.882 239.798 169.628 247.381 189.99C257.409 216.924 258.071 249.795 249.071 273.729L174.232 472.745C166.646 492.918 154.066 503.07 139.713 500.601C123.745 497.853 109.18 479.539 101.7 452.812L35.057 214.668C26.5473 184.256 29.0586 150.963 41.4547 129.846C46.0818 121.965 51.6545 116.63 57.8103 114.037L57.8081 114.037ZM173.061 471.799L247.898 272.786C256.715 249.341 256.058 217.129 246.228 190.724C238.85 170.913 227.398 157.553 214.805 154.07L73.3229 114.942C61.4715 111.665 50.521 117.391 42.4908 131.068C30.368 151.715 27.9248 184.32 36.2675 214.129L102.91 452.273C110.195 478.309 124.317 496.134 139.764 498.791C153.581 501.169 165.715 491.33 173.061 471.799Z" fill="#20ACF5"/>
<path d="M41.8025 112.908C46.2418 111.039 50.9763 110.367 55.872 110.996L212.909 131.152C227.665 133.046 241.539 146.265 250.978 167.421C263.138 194.675 265.411 228.155 256.912 254.797L185.962 477.207C178.707 499.955 164.805 512.908 148.774 511.853C131.304 510.706 115.163 493.924 105.596 466.967L19.509 224.401C8.95402 194.663 9.44483 159.837 20.755 135.677C26.1086 124.243 33.4293 116.44 41.8025 112.908ZM185.362 476.784L184.762 476.358L255.711 253.944C264.039 227.835 261.808 195.013 249.884 168.289C240.689 147.678 227.208 134.802 212.896 132.967L55.8596 112.811C42.2011 111.057 29.8109 119.786 21.8683 136.757C10.792 160.415 10.3241 194.545 20.6721 223.704L106.759 466.27C116.089 492.56 131.779 508.919 148.729 510.032C164.238 511.05 177.708 498.461 184.761 476.355L185.362 476.781L185.362 476.784Z" fill="#20ACF5"/>
<path d="M24.5205 113.869C28.3107 112.27 32.3212 111.418 36.4935 111.363L209.514 109.045C226.222 108.822 242.434 121.325 253.992 143.347C268.08 170.189 272.087 204.744 264.454 233.53L199.05 480.174C192.232 505.884 177.417 521.717 159.418 522.524C140.591 523.371 122.357 507.996 110.64 481.394L3.02314 237.069C-9.7987 207.959 -11.5531 172.874 -1.55616 145.502C4.28354 129.509 13.4667 118.525 24.5182 113.865L24.5205 113.869ZM198.436 479.797L197.82 479.421L263.224 232.777C270.708 204.551 266.776 170.665 252.962 144.341C241.682 122.848 225.892 110.648 209.637 110.865L36.6161 113.183C20.746 113.396 7.26309 125.516 -0.376449 146.434C-10.175 173.26 -8.44872 207.661 4.12609 236.211L111.743 480.536C123.183 506.51 140.951 521.523 159.272 520.702C176.765 519.916 191.176 504.485 197.822 479.421L198.438 479.797L198.436 479.797Z" fill="#20ACF5"/>
<path d="M6.18379 117.247C9.10314 116.017 12.1506 115.153 15.3118 114.677L204.589 86.1048C223.479 83.2519 242.337 94.7676 256.326 117.698C272.267 143.827 278.095 179.132 271.537 209.834L213.541 481.347C207.415 510.026 191.832 529.078 171.853 532.307C151.561 535.586 131.039 521.991 116.961 495.937L-14.32 252.996C-29.2744 225.325 -33.4821 189.583 -25.304 159.723C-19.4297 138.273 -8.20797 123.308 6.18156 117.244L6.18379 117.247ZM180.016 528.077C195.42 521.585 207.19 504.551 212.286 480.699L270.282 209.187C276.713 179.074 270.997 144.443 255.358 118.812C241.684 96.3952 223.268 85.1355 204.833 87.9171L15.5561 116.489C-2.72937 119.25 -17.1744 135.289 -24.0776 160.494C-32.0987 189.779 -27.9683 224.836 -13.3007 251.981L117.98 494.922C131.749 520.4 151.791 533.697 171.596 530.497C174.503 530.026 177.314 529.213 180.014 528.074L180.016 528.077Z" fill="#20ACF5"/>
<path d="M-12.7287 123.166C-11.0819 122.471 -9.40016 121.88 -7.68352 121.386L197.942 62.5121C218.929 56.5048 241.326 66.9318 257.853 90.4099C275.827 115.942 283.353 150.791 277.983 183.636L229.469 480.412C224.311 511.97 208.174 534.548 186.296 540.812C164.423 547.077 141.389 535.712 124.682 510.416L-32.4293 272.514C-49.8163 246.188 -56.4957 211.094 -50.2999 178.641C-45.0682 151.241 -31.2065 130.954 -12.7287 123.166ZM190.94 537.258C209.79 529.314 223.542 508.32 228.191 479.868L276.708 183.092C281.975 150.87 274.592 116.679 256.957 91.6295C240.769 68.6337 218.842 58.4166 198.305 64.2958L-7.32016 123.173C-27.8547 129.058 -43.4516 150.014 -49.0334 179.242C-55.114 211.081 -48.5585 245.508 -31.5002 271.338L125.611 509.24C141.976 534.02 164.526 545.154 185.935 539.023C187.641 538.534 189.31 537.945 190.942 537.259L190.94 537.258Z" fill="#20ACF5"/>
<path d="M-32.478 131.973L189.373 38.4834C212.943 28.5487 238.755 37.1223 258.422 61.417C278.087 85.7085 287.499 120.643 283.595 154.869L246.853 477.014C242.95 511.237 226.547 537.601 202.978 547.533C179.408 557.464 153.596 548.891 133.931 524.599L-51.1794 295.944C-70.8445 271.652 -80.2557 236.715 -76.3525 202.492C-72.4494 168.265 -56.0462 141.904 -32.478 131.973ZM246.207 476.799L245.561 476.585L282.304 154.44C286.133 120.854 276.899 86.5738 257.6 62.7364C238.303 38.8991 212.973 30.4854 189.844 40.2318L-32.0088 133.721C-55.1373 143.467 -71.2315 169.337 -75.0631 202.92C-78.8946 236.504 -69.6583 270.787 -50.3614 294.624L134.749 523.28C154.046 547.117 179.376 555.531 202.505 545.784C225.634 536.038 241.73 510.169 245.559 476.585L246.205 476.799L246.207 476.799Z" fill="#20ACF5"/>
</g>
</g>
<defs>
<clipPath id="clip0_32_619">
<rect width="218" height="2217" fill="white"/>
</clipPath>
</defs>
</svg>
