<svg width="887" height="225" viewBox="0 0 887 225" fill="none" xmlns="http://www.w3.org/2000/svg">
<g clip-path="url(#clip0_36_2382)">
<mask id="mask0_36_2382" style="mask-type:luminance" maskUnits="userSpaceOnUse" x="0" y="0" width="887" height="225">
<path d="M887 0H0V225H887V0Z" fill="white"/>
</mask>
<g mask="url(#mask0_36_2382)">
<path fill-rule="evenodd" clip-rule="evenodd" d="M0 83.2351L38.2831 116.161C77.6298 147.867 155.259 211.279 232.889 222.254C309.456 233.229 387.086 190.548 464.715 147.867C542.345 105.185 619.975 62.5042 697.604 57.6264C774.171 51.5291 851.801 83.2351 891.147 100.308L929.431 116.161V0H891.147C851.801 0 774.171 0 697.604 0C619.975 0 542.345 0 464.715 0C387.086 0 309.456 0 232.889 0C155.259 0 77.6298 0 38.2831 0H0V83.2351Z" fill="url(#paint0_linear_36_2382)"/>
</g>
</g>
<defs>
<linearGradient id="paint0_linear_36_2382" x1="333.451" y1="-9.40212e-07" x2="290.74" y2="274.569" gradientUnits="userSpaceOnUse">
<stop stop-color="#20ACF5"/>
<stop offset="1" stop-color="#0065E1"/>
</linearGradient>
<clipPath id="clip0_36_2382">
<rect width="887" height="225" fill="white"/>
</clipPath>
</defs>
</svg>
