<svg width="15" height="14" viewBox="0 0 15 14" fill="none" xmlns="http://www.w3.org/2000/svg">
<path fill-rule="evenodd" clip-rule="evenodd" d="M1.38322 5.34389L1.79046 5.69683C1.84476 5.72398 1.87191 5.80543 1.84476 5.85973L1.11173 7.24434C0.731638 7.92308 1.41037 8.57466 1.81761 8.819C2.22485 9.0362 2.82214 9.06335 3.41942 9.06335C3.44657 9.06335 3.50087 9.0362 3.52802 9.00905L4.50539 7.40724C4.53254 7.32579 4.61399 7.32579 4.66829 7.35294L4.99408 7.51584C5.04838 7.54299 5.10268 7.54299 5.15698 7.48869C5.18413 7.46154 5.21128 7.38009 5.18413 7.32579L3.98956 5.15385C3.98956 5.1267 3.93526 5.09955 3.88096 5.09955L1.46467 5.1267C1.38322 5.1267 1.35607 5.15385 1.32892 5.20814C1.30177 5.26244 1.32892 5.31674 1.38322 5.34389ZM1.51897 9.11765L2.95788 11.8054C3.22938 12.2941 4.15245 12.3484 4.66829 12.3484H6.3787C6.46014 12.3484 6.51444 12.267 6.51444 12.2127V9.38914C6.51444 9.30769 6.46014 9.25339 6.3787 9.25339L2.93073 9.22624C2.55064 9.22624 2.1434 9.19909 1.68186 8.95475C1.62757 8.9276 1.57327 8.9276 1.54612 8.9819C1.49182 9.00905 1.49182 9.0905 1.51897 9.11765ZM11.5099 2.84615L10.9941 3.06335C10.9398 3.0905 10.8583 3.06335 10.8312 3.00905L9.98956 1.70588C9.60947 1.02715 8.68639 1.27149 8.27915 1.51584C7.89906 1.76018 7.57327 2.24887 7.27462 2.76471C7.24748 2.819 7.24748 2.84615 7.27462 2.90045L8.17055 4.55656C8.1977 4.61086 8.1977 4.69231 8.11625 4.71946L7.81761 4.9095C7.76331 4.93665 7.73616 4.99095 7.76331 5.0724C7.76331 5.1267 7.81761 5.15385 7.87191 5.15385L10.3425 5.23529C10.3968 5.23529 10.4511 5.20814 10.4782 5.15385L11.6728 3.0362C11.7 3.00905 11.7 2.9276 11.6457 2.90045C11.6185 2.84615 11.5642 2.84615 11.5099 2.84615ZM8.17055 1.08145L5.12983 1C4.55969 1 4.071 1.78733 3.79951 2.22172L2.95788 3.71493C2.90358 3.76923 2.93073 3.85068 3.01218 3.87783L5.42847 5.28959C5.50992 5.34389 5.59137 5.31674 5.61852 5.23529L7.35607 2.27602C7.57327 1.92308 7.79046 1.59729 8.22485 1.32579C8.27915 1.29864 8.3063 1.24434 8.27915 1.19005C8.27915 1.13575 8.22485 1.08145 8.17055 1.08145ZM8.60494 12.8914L8.68639 12.3484C8.68639 12.267 8.74069 12.2398 8.79499 12.2127L10.3696 12.1584C11.1298 12.1584 11.3742 11.2353 11.3742 10.7738C11.3742 10.3122 11.0755 9.76923 10.804 9.25339C10.7769 9.22624 10.7226 9.19909 10.6954 9.19909L8.79499 9.1448C8.74069 9.1448 8.68639 9.0905 8.68639 9.00905L8.65924 8.65611C8.65924 8.60181 8.63209 8.54751 8.57779 8.54751C8.49634 8.52036 8.44205 8.54751 8.4149 8.60181L7.11173 10.6923C7.08458 10.7466 7.08458 10.8009 7.11173 10.8281L8.3606 12.9186C8.38775 12.9729 8.44204 13 8.49634 13C8.55064 12.9729 8.60494 12.9457 8.60494 12.8914ZM11.8086 10.8824L13.3832 8.30317C13.6819 7.78733 13.2475 6.97285 13.0031 6.53846L12.1344 5.04525C12.1072 4.99095 12.0258 4.9638 11.9715 4.99095L9.52802 6.40272C9.44657 6.42986 9.44657 6.51131 9.47372 6.59276L11.1841 9.57919C11.3742 9.93213 11.5642 10.3122 11.5642 10.8009C11.5642 10.8552 11.5914 10.9095 11.6457 10.9367C11.7 10.9367 11.7814 10.9367 11.8086 10.8824Z" fill="#009D10"/>
<path d="M3.87759 4.79957L1.46272 4.8267C1.392 4.82691 1.29844 4.8385 1.21003 4.89744C1.12292 4.95551 1.08057 5.03404 1.0606 5.07398C1.00812 5.17892 1.00435 5.29835 1.04979 5.40437C1.08505 5.48665 1.1437 5.54749 1.20736 5.58846L1.51004 5.85079L0.848141 7.10105C0.590193 7.56477 0.705264 8.01631 0.914673 8.35301C1.02174 8.52515 1.15798 8.6769 1.29683 8.80243C1.23799 8.8703 1.21207 8.95056 1.20432 9.01256C1.19605 9.07872 1.20105 9.18642 1.26604 9.28082L2.6934 11.947L2.69337 11.947L2.69564 11.9511C2.89727 12.3141 3.30946 12.4744 3.6551 12.5528C4.01731 12.6349 4.40367 12.6484 4.66829 12.6484H6.3787C6.52584 12.6484 6.63674 12.5741 6.70289 12.4985C6.76407 12.4285 6.81444 12.3269 6.81444 12.2127V10.9054C6.82588 10.9374 6.84234 10.9699 6.8655 11.0008L8.09874 13.0652C8.18559 13.2265 8.3488 13.3 8.49634 13.3H8.56716L8.63051 13.2683C8.63187 13.2676 8.63346 13.2669 8.63526 13.266C8.6581 13.2547 8.71448 13.2268 8.76306 13.1863C8.82097 13.1381 8.89383 13.0506 8.90379 12.9214L8.96596 12.507L10.3752 12.4584C10.9002 12.4561 11.2339 12.1273 11.4208 11.7819C11.5155 11.607 11.5798 11.4169 11.62 11.2367H11.6457C11.647 11.2367 11.6484 11.2367 11.6501 11.2367C11.6751 11.2367 11.7384 11.2369 11.8024 11.2227C11.8671 11.2083 11.9946 11.1653 12.0689 11.0316L13.6393 8.45949L13.6393 8.45954L13.6428 8.45348C13.858 8.08193 13.7912 7.64292 13.6829 7.29993C13.5708 6.94508 13.3871 6.60909 13.2646 6.39138L13.2646 6.39137L13.2624 6.38759L12.3969 4.89988C12.3388 4.79242 12.2421 4.731 12.158 4.70295C12.0709 4.67394 11.9517 4.66541 11.8373 4.72262L11.8292 4.72667L11.8214 4.73119L10.6716 5.39552C10.6985 5.36707 10.7225 5.33408 10.7423 5.29637L11.923 3.20335C11.9906 3.10802 11.9959 2.9982 11.9875 2.93112C11.9785 2.85904 11.9449 2.76232 11.8636 2.68904C11.809 2.62353 11.7389 2.58407 11.6704 2.56448C11.6038 2.54545 11.5371 2.54596 11.5144 2.54613C11.5126 2.54614 11.5111 2.54615 11.5099 2.54615H11.4493L11.3935 2.56966L11.0091 2.73153L10.2464 1.55054C9.98428 1.0909 9.5356 0.956579 9.13835 0.96477C8.93709 0.968919 8.73769 1.0086 8.55877 1.06587C8.5361 0.998531 8.49736 0.94327 8.45734 0.903253C8.39578 0.841692 8.29815 0.783168 8.17596 0.781485L5.13786 0.700108L5.13786 0.7H5.12983C4.7096 0.7 4.36834 0.983691 4.13029 1.24661C3.88746 1.51481 3.68738 1.83503 3.55388 2.04869C3.55093 2.05342 3.548 2.0581 3.54511 2.06272L3.54485 2.06256L3.53817 2.07442L2.7102 3.54338C2.63248 3.64504 2.60816 3.77736 2.64952 3.90143C2.68933 4.02086 2.77926 4.10432 2.88041 4.14829L4.04549 4.82901C3.99364 4.8098 3.93713 4.79954 3.88096 4.79953L3.87759 4.79957ZM6.8434 10.5581C6.83239 10.5802 6.82254 10.6038 6.81444 10.6286L4.1728 4.9034L5.27123 5.54518C5.36805 5.60665 5.49665 5.64072 5.63006 5.6007C5.7559 5.56294 5.84327 5.47181 5.88879 5.36748L7.12717 3.25837L7.82536 4.54898L7.66596 4.65042C7.58977 4.69289 7.51738 4.76296 7.47902 4.86525C7.4444 4.95757 7.44751 5.04935 7.46744 5.12869C7.48465 5.24416 7.55345 5.33151 7.63084 5.3831C7.70913 5.43529 7.79515 5.45284 7.86567 5.4538L10.3326 5.53513L10.3326 5.53529H10.3425C10.3789 5.53529 10.4163 5.53081 10.4533 5.52163L9.39683 6.13204C9.27092 6.18696 9.19073 6.29473 9.16597 6.41854C9.14416 6.52757 9.16898 6.62724 9.18911 6.68763L9.19855 6.71595L9.21339 6.74186L10.4447 8.89181L8.97503 8.84982L8.95901 8.64158C8.95681 8.57267 8.93866 8.49028 8.88849 8.41504C8.8369 8.33765 8.74955 8.26885 8.63408 8.25164C8.55475 8.23171 8.46297 8.2286 8.37065 8.26322C8.26766 8.30184 8.19733 8.37496 8.15495 8.45171L6.85714 10.5336L6.8497 10.5456L6.8434 10.5581ZM10.704 8.89922L10.702 8.89916C10.6998 8.89912 10.6976 8.89909 10.6954 8.89909V9.19909L10.704 8.89922ZM10.6195 9.19692L8.79499 9.1448C8.74069 9.1448 8.68639 9.0905 8.68639 9.00905L8.66751 8.76367L8.66948 8.76051L8.67693 8.74857L8.68322 8.73597C8.67955 8.74331 8.67466 8.75146 8.66844 8.75986C8.66808 8.76036 8.66771 8.76085 8.66733 8.76134L8.66716 8.75907L8.66467 8.7267L8.65924 8.65611C8.65924 8.60181 8.63209 8.54751 8.57779 8.54751L10.6195 9.19692Z" stroke="black" stroke-opacity="0.99" stroke-width="0.6"/>
</svg>
